<svg width="121.199951" height="24.000000" viewBox="0 0 121.2 24" fill="none" xmlns="http://www.w3.org/2000/svg" xmlns:xlink="http://www.w3.org/1999/xlink">
	<desc>
			Created with Pixso.
	</desc>
	<defs>
		<clipPath id="clip359_67">
			<rect width="121.199997" height="24.000000" fill="white" fill-opacity="0"/>
		</clipPath>
	</defs>
	<rect width="121.199997" height="24.000000" fill="#FFFFFF" fill-opacity="0"/>
	<g clip-path="url(#clip359_67)">
		<path d="M15.3335 7.01118C14.3467 6.3519 13.1868 6 12 6L12 0C14.3733 0 16.6934 0.703789 18.6667 2.02237C20.6401 3.34094 22.1782 5.21509 23.0867 7.40778C23.9949 9.60048 24.2324 12.0133 23.7695 14.3411C23.3064 16.6688 22.1636 18.8071 20.4854 20.4853C18.8071 22.1635 16.6689 23.3064 14.3411 23.7694C12.0134 24.2324 9.60059 23.9948 7.40771 23.0866C5.21509 22.1783 3.34082 20.6402 2.02246 18.6668C0.703857 16.6934 0 14.3734 0 12L6 12C6 13.1867 6.35181 14.3467 7.01123 15.3334C7.67041 16.3201 8.60742 17.0891 9.70386 17.5433C10.8003 17.9974 12.0066 18.1162 13.1707 17.8847C14.3345 17.6532 15.4036 17.0818 16.2427 16.2427C17.0818 15.4035 17.6533 14.3344 17.8848 13.1705C18.1162 12.0067 17.9973 10.8002 17.5432 9.70392C17.0891 8.60754 16.3201 7.67046 15.3335 7.01118Z" fill="#35AFF4" fill-opacity="1.000000" fill-rule="evenodd"/>
		<path d="M6 3.8147e-06C6 0.787933 5.84473 1.56815 5.54321 2.29611C5.2417 3.02406 4.7998 3.68549 4.24268 4.24265C3.68555 4.7998 3.02417 5.24175 2.29614 5.54328C1.56812 5.84481 0.787842 6 0 6L0 12C1.57593 12 3.13623 11.6896 4.59229 11.0866C6.0481 10.4835 7.37109 9.59958 8.48535 8.48526C9.59961 7.371 10.4834 6.04812 11.0867 4.59221C11.6897 3.13629 12 1.57586 12 0L6 3.8147e-06Z" fill="#35AFF4" fill-opacity="1.000000" fill-rule="evenodd"/>
		<path d="M75.3713 8.6715L72.4602 8.6715L72.4602 17.9189L75.3713 17.9189L75.3713 8.6715Z" fill="#35AFF4" fill-opacity="1.000000" fill-rule="nonzero"/>
		<path d="M72.7842 6.93996C73.0884 7.2444 73.4688 7.39662 73.9253 7.39662C74.3821 7.39662 74.7563 7.2444 75.0481 6.93996C75.3401 6.62286 75.4861 6.24228 75.4861 5.79831C75.4861 5.34166 75.3401 4.96109 75.0481 4.65667C74.7563 4.35221 74.3821 4.2 73.9253 4.2C73.4688 4.2 73.0884 4.35221 72.7842 4.65667C72.4919 4.96109 72.3462 5.34166 72.3462 5.79831C72.3462 6.24228 72.4919 6.62286 72.7842 6.93996Z" fill="#35AFF4" fill-opacity="1.000000" fill-rule="nonzero"/>
		<path d="M30.6938 17.9189L30.6938 4.48541L33.6812 4.48541L33.6812 15.2931L39.637 15.2931L39.637 17.9189L30.6938 17.9189Z" fill="#35AFF4" fill-opacity="1.000000" fill-rule="nonzero"/>
		<path d="M45.0164 18.1282C44.0649 18.1282 43.2024 17.9189 42.4287 17.5003C41.6675 17.069 41.0649 16.4855 40.6211 15.7497C40.177 15.014 39.9551 14.1895 39.9551 13.2761C39.9551 12.3628 40.177 11.5447 40.6211 10.8216C41.0649 10.0985 41.6675 9.5277 42.4287 9.10914C43.1897 8.6778 44.0522 8.46216 45.0164 8.46216C45.9805 8.46216 46.843 8.6715 47.604 9.09006C48.3652 9.50868 48.9678 10.0859 49.4116 10.8216C49.8557 11.5447 50.0776 12.3628 50.0776 13.2761C50.0776 14.1895 49.8557 15.014 49.4116 15.7497C48.9678 16.4855 48.3652 17.069 47.604 17.5003C46.843 17.9189 45.9805 18.1282 45.0164 18.1282ZM45.0164 15.4834C45.4351 15.4834 45.8027 15.3946 46.1201 15.217C46.437 15.0267 46.6782 14.7667 46.843 14.4368C47.0205 14.0944 47.1094 13.7074 47.1094 13.2761C47.1094 12.8449 47.0205 12.4706 46.843 12.1535C46.6655 11.8237 46.4182 11.57 46.1008 11.3924C45.7964 11.2021 45.4351 11.107 45.0164 11.107C44.6106 11.107 44.249 11.2021 43.9319 11.3924C43.6147 11.57 43.3674 11.8237 43.1897 12.1535C43.0122 12.4834 42.9233 12.8639 42.9233 13.2952C42.9233 13.7138 43.0122 14.0944 43.1897 14.4368C43.3674 14.7667 43.6147 15.0267 43.9319 15.217C44.249 15.3946 44.6106 15.4834 45.0164 15.4834Z" fill="#35AFF4" fill-opacity="1.000000" fill-rule="evenodd"/>
		<path d="M52.3835 21.5341C53.1572 21.8893 54.0515 22.0669 55.0664 22.0669C56.0559 22.0669 56.9375 21.8702 57.7112 21.477C58.4851 21.0838 59.0938 20.5384 59.5378 19.8407C59.9817 19.143 60.2041 18.3185 60.2041 17.3671L60.2041 8.6715L57.3496 8.6715L57.3496 9.2928C57.1375 9.11412 56.8962 8.96412 56.6267 8.84274C56.1318 8.60172 55.5674 8.48118 54.9331 8.48118C54.0833 8.48118 53.3286 8.68416 52.6689 9.09006C52.0093 9.4833 51.4893 10.0288 51.1086 10.7264C50.728 11.4115 50.5378 12.1852 50.5378 13.0478C50.5378 13.8977 50.728 14.6715 51.1086 15.3692C51.4893 16.0669 52.0093 16.6187 52.6689 17.0246C53.3286 17.4305 54.0833 17.6335 54.9331 17.6335C55.5547 17.6335 56.1191 17.513 56.6267 17.272C56.8723 17.1552 57.0945 17.0176 57.2925 16.8592L57.2925 17.4432C57.2925 18.0901 57.0833 18.5912 56.6648 18.9464C56.2588 19.3016 55.6943 19.4791 54.9712 19.4791C54.3877 19.4791 53.8867 19.3777 53.468 19.1747C53.0623 18.9718 52.6943 18.6736 52.3645 18.2804L50.5759 20.069C51.0198 20.7032 51.6223 21.1916 52.3835 21.5341ZM56.5315 14.7793C56.2397 14.9569 55.8909 15.0457 55.4849 15.0457C55.0791 15.0457 54.7239 14.9569 54.4194 14.7793C54.1277 14.6017 53.8994 14.3607 53.7344 14.0563C53.5696 13.7392 53.4871 13.403 53.4871 13.0478C53.4871 12.6673 53.5696 12.3248 53.7344 12.0203C53.8994 11.7159 54.134 11.4749 54.4385 11.2973C54.7429 11.1197 55.0918 11.0309 55.4849 11.0309C55.8909 11.0309 56.2397 11.1197 56.5315 11.2973C56.8359 11.4749 57.0642 11.7159 57.2166 12.0203C57.3813 12.3248 57.4639 12.6673 57.4639 13.0478C57.4639 13.4284 57.3813 13.7708 57.2166 14.0753C57.0642 14.3671 56.8359 14.6017 56.5315 14.7793Z" fill="#35AFF4" fill-opacity="1.000000" fill-rule="evenodd"/>
		<path d="M66.3306 18.1282C65.3792 18.1282 64.5164 17.9189 63.7429 17.5003C62.9814 17.069 62.3792 16.4855 61.9351 15.7497C61.491 15.014 61.269 14.1895 61.269 13.2761C61.269 12.3628 61.491 11.5447 61.9351 10.8216C62.3792 10.0985 62.9814 9.5277 63.7429 9.10914C64.5037 8.6778 65.3665 8.46216 66.3306 8.46216C67.2942 8.46216 68.157 8.6715 68.9177 9.09006C69.6792 9.50868 70.2817 10.0859 70.7256 10.8216C71.1697 11.5447 71.3916 12.3628 71.3916 13.2761C71.3916 14.1895 71.1697 15.014 70.7256 15.7497C70.2817 16.4855 69.6792 17.069 68.9177 17.5003C68.157 17.9189 67.2942 18.1282 66.3306 18.1282ZM66.3306 15.4834C66.7488 15.4834 67.1167 15.3946 67.4341 15.217C67.7507 15.0267 67.9919 14.7667 68.157 14.4368C68.3347 14.0944 68.4233 13.7074 68.4233 13.2761C68.4233 12.8449 68.3347 12.4706 68.157 12.1535C67.9795 11.8237 67.7322 11.57 67.4148 11.3924C67.1106 11.2021 66.7488 11.107 66.3306 11.107C65.9246 11.107 65.5627 11.2021 65.2458 11.3924C64.9285 11.57 64.6812 11.8237 64.5037 12.1535C64.3259 12.4834 64.2373 12.8639 64.2373 13.2952C64.2373 13.7138 64.3259 14.0944 64.5037 14.4368C64.6812 14.7667 64.9285 15.0267 65.2458 15.217C65.5627 15.3946 65.9246 15.4834 66.3306 15.4834Z" fill="#35AFF4" fill-opacity="1.000000" fill-rule="evenodd"/>
		<path d="M82.3687 18.1091C81.7476 18.1091 81.1765 17.9887 80.6562 17.7476C80.3826 17.6208 80.1355 17.4694 79.9146 17.2933L79.9146 21.8195L77.0413 21.8195L77.0413 8.6715L79.9524 8.6715L79.9524 9.30972C80.1636 9.13698 80.3982 8.98764 80.6562 8.86176C81.1765 8.60802 81.7476 8.48118 82.3687 8.48118C83.2441 8.48118 84.0181 8.69052 84.6899 9.10914C85.3752 9.5277 85.908 10.0985 86.2886 10.8216C86.6821 11.5447 86.8782 12.3692 86.8782 13.2952C86.8782 14.2212 86.6821 15.0457 86.2886 15.7688C85.908 16.4918 85.3752 17.0626 84.6899 17.4812C84.0181 17.8999 83.2441 18.1091 82.3687 18.1091ZM81.8364 15.4834C82.2546 15.4834 82.6165 15.3882 82.9207 15.1979C83.238 15.0077 83.4854 14.7476 83.6628 14.4178C83.8406 14.088 83.9292 13.7138 83.9292 13.2952C83.9292 12.8639 83.8406 12.4834 83.6628 12.1535C83.4854 11.8237 83.238 11.57 82.9207 11.3924C82.6165 11.2021 82.2612 11.107 81.855 11.107C81.4495 11.107 81.0876 11.2021 80.7708 11.3924C80.4661 11.57 80.2253 11.8237 80.0479 12.1535C79.8704 12.4834 79.7815 12.8639 79.7815 13.2952C79.7815 13.7138 79.8638 14.088 80.0286 14.4178C80.2063 14.7476 80.4534 15.0077 80.7708 15.1979C81.0876 15.3882 81.4429 15.4834 81.8364 15.4834Z" fill="#35AFF4" fill-opacity="1.000000" fill-rule="evenodd"/>
		<path d="M89.7275 17.9379C90.2605 18.0775 90.7993 18.1472 91.3445 18.1472C92.499 18.1472 93.4121 17.8808 94.0847 17.348C94.7693 16.8153 95.1121 16.0986 95.1121 15.1979C95.1121 14.6144 95.0046 14.1451 94.7886 13.7899C94.5732 13.4221 94.2942 13.1303 93.9517 12.9146C93.6089 12.699 93.2473 12.5277 92.8667 12.4009C92.4863 12.274 92.1245 12.1662 91.7827 12.0774C91.4399 11.9886 91.1609 11.8871 90.9451 11.773C90.7295 11.6588 90.6216 11.5066 90.6216 11.3163C90.6216 11.1387 90.7043 11.0055 90.8689 10.9167C91.0337 10.8152 91.281 10.7645 91.6111 10.7645C91.9536 10.7645 92.3022 10.8343 92.6575 10.9738C93.0251 11.1133 93.3552 11.3544 93.6467 11.6969L95.3022 10.0225C94.884 9.48966 94.3386 9.09006 93.666 8.82372C93.0066 8.54466 92.2837 8.4051 91.4971 8.4051C90.7488 8.4051 90.0955 8.53194 89.5374 8.78562C88.9788 9.03936 88.5474 9.3882 88.2432 9.83214C87.939 10.2634 87.7866 10.7772 87.7866 11.3734C87.7866 11.9315 87.8945 12.3946 88.1101 12.7624C88.3254 13.1176 88.605 13.3967 88.947 13.5996C89.2896 13.8026 89.6514 13.9612 90.0317 14.0753C90.4121 14.1895 90.7739 14.2973 91.1167 14.3988C91.4585 14.4876 91.7383 14.5954 91.9536 14.7223C92.1821 14.8364 92.2961 15.0077 92.2961 15.236C92.2961 15.4136 92.2007 15.5531 92.0105 15.6546C91.833 15.7561 91.5732 15.8068 91.2307 15.8068C90.7356 15.8068 90.2791 15.718 89.8608 15.5404C89.4419 15.3502 89.0803 15.0901 88.7761 14.7603L87.1206 16.4347C87.438 16.7772 87.8184 17.0817 88.2625 17.348C88.719 17.6017 89.2075 17.7983 89.7275 17.9379Z" fill="#35AFF4" fill-opacity="1.000000" fill-rule="nonzero"/>
		<path d="M100.421 18.1282C99.571 18.1282 98.8164 17.9569 98.157 17.6144C97.5095 17.2592 97.0024 16.7772 96.6348 16.1683C96.2664 15.5468 96.0828 14.8364 96.0828 14.0372L96.0828 8.6715L98.9939 8.6715L98.9939 13.9992C98.9939 14.3163 99.0444 14.5891 99.1465 14.8174C99.2603 15.0457 99.4253 15.2233 99.6409 15.3502C99.8567 15.477 100.116 15.5404 100.421 15.5404C100.852 15.5404 101.195 15.4072 101.448 15.1408C101.702 14.8618 101.829 14.4812 101.829 13.9992L101.829 8.6715L104.74 8.6715L104.74 14.0182C104.74 14.8301 104.557 15.5468 104.188 16.1683C103.82 16.7772 103.313 17.2592 102.666 17.6144C102.019 17.9569 101.271 18.1282 100.421 18.1282Z" fill="#35AFF4" fill-opacity="1.000000" fill-rule="nonzero"/>
		<path d="M109.099 8.6715L106.188 8.6715L106.188 17.9189L109.099 17.9189L109.099 12.515C109.099 12.1979 109.162 11.9315 109.289 11.7159C109.429 11.5003 109.613 11.3353 109.841 11.2212C110.07 11.0943 110.329 11.0309 110.621 11.0309C111.04 11.0309 111.388 11.1641 111.667 11.4305C111.959 11.6842 112.105 12.0457 112.105 12.515L112.105 17.9189L115.017 17.9189L115.017 12.515C115.017 12.1979 115.08 11.9315 115.207 11.7159C115.346 11.5003 115.53 11.3353 115.759 11.2212C115.987 11.0943 116.247 11.0309 116.539 11.0309C116.958 11.0309 117.306 11.1641 117.585 11.4305C117.877 11.6842 118.022 12.0457 118.022 12.515L118.022 17.9189L120.934 17.9189L120.934 12.1916C120.934 11.4178 120.769 10.7582 120.439 10.2127C120.122 9.65454 119.685 9.22962 119.126 8.9379C118.581 8.6334 117.953 8.48118 117.242 8.48118C116.52 8.48118 115.866 8.63976 115.283 8.95692C114.904 9.15894 114.573 9.4197 114.289 9.73914C114.024 9.405 113.702 9.13158 113.323 8.91882C112.816 8.6271 112.239 8.48118 111.592 8.48118C110.906 8.48118 110.292 8.6271 109.746 8.91882C109.509 9.0402 109.293 9.18558 109.099 9.35496L109.099 8.6715Z" fill="#35AFF4" fill-opacity="1.000000" fill-rule="nonzero"/>
	</g>
</svg>
