<svg width="25.000000" height="24.000000" viewBox="0 0 25 24" fill="none" xmlns="http://www.w3.org/2000/svg" xmlns:xlink="http://www.w3.org/1999/xlink">
	<desc>
			Created with Pixso.
	</desc>
	<defs/>
	<rect id="Frame 75" rx="12.000000" width="25.000000" height="24.000000" fill="#35AFF4" fill-opacity="1.000000"/>
	<path id="3" d="M11.6 13.016L10.832 11.72L13.888 8.904L8.928 8.904L8.928 7.464L15.968 7.464L15.968 8.872L13.008 11.608C13.8507 11.608 14.592 11.8853 15.232 12.44C15.8827 12.9947 16.208 13.768 16.208 14.76C16.208 15.6773 15.872 16.4613 15.2 17.112C14.528 17.7627 13.6107 18.088 12.448 18.088C11.3067 18.088 10.3893 17.7733 9.696 17.144C9.01333 16.504 8.64533 15.7307 8.592 14.824L10.128 14.472C10.16 15.144 10.3893 15.688 10.816 16.104C11.2533 16.5093 11.792 16.712 12.432 16.712C13.1147 16.712 13.648 16.5307 14.032 16.168C14.4267 15.7947 14.624 15.336 14.624 14.792C14.624 14.1627 14.416 13.6827 14 13.352C13.584 13.0213 13.088 12.856 12.512 12.856C12.2027 12.856 11.8987 12.9093 11.6 13.016Z" fill="#FFFFFF" fill-opacity="1.000000" fill-rule="evenodd"/>
</svg>
