<svg width="155.210693" height="28.000000" viewBox="0 0 155.211 28" fill="none" xmlns="http://www.w3.org/2000/svg" xmlns:xlink="http://www.w3.org/1999/xlink">
	<desc>
			Created with Pixso.
	</desc>
	<defs>
		<clipPath id="clip359_191">
			<rect width="155.210648" height="28.000000" fill="white" fill-opacity="0"/>
		</clipPath>
	</defs>
	<rect width="155.210648" height="28.000000" fill="#FFFFFF" fill-opacity="0"/>
	<g clip-path="url(#clip359_191)">
		<path d="M17.075 22.9641C17.4331 22.9641 17.7742 22.8788 18.0984 22.6911L21.834 20.5418C22.5847 20.1153 23.4546 19.9278 24.3245 20.0301C28.8621 20.5589 32.0347 21.4118 32.9729 21.6848C33.1606 21.7359 33.3823 21.6677 33.5017 21.5141C33.6553 21.3265 33.843 21.0195 33.9963 20.576C34.1328 20.1495 34.1499 19.7913 34.1328 19.5354C34.1157 19.3307 33.9795 19.1431 33.7747 19.0919C32.3076 18.6654 25.8086 16.9084 17.075 16.9084C8.34131 16.9084 1.84204 18.6655 0.375244 19.0919C0.17041 19.1431 0.0339355 19.3307 0.0168457 19.5355C-0.000244141 19.7742 0.0168457 20.1325 0.15332 20.576C0.289795 21.0195 0.494629 21.3265 0.647949 21.5141C0.767578 21.6677 0.989258 21.7359 1.17676 21.6847C2.11499 21.4118 5.30493 20.5589 9.8252 20.0301C10.6951 19.9278 11.5652 20.1154 12.3157 20.5418L16.0515 22.6911C16.3755 22.8788 16.7336 22.9641 17.075 22.9641ZM10.8489 10.87C11.0535 11.2281 11.3777 11.467 11.7527 11.5693C12.1279 11.6716 12.5205 11.6205 12.8787 11.4158C13.2368 11.2111 13.4756 10.887 13.5779 10.5117C13.6804 10.1364 13.6292 9.74414 13.4246 9.38586L10.064 3.56909C9.96167 3.38153 9.73999 3.31329 9.53516 3.33032C9.26245 3.34741 8.88696 3.48383 8.4436 3.73969C8 3.99561 7.69312 4.2514 7.53955 4.47321C7.41992 4.6438 7.38599 4.86554 7.48828 5.05316L10.8489 10.87ZM7.77832 15.0321C8.13647 15.2368 8.5459 15.2709 8.90405 15.1856C9.2793 15.0833 9.60352 14.8444 9.80811 14.4862C10.0129 14.1281 10.0471 13.7187 9.96167 13.3604C9.87646 13.0021 9.62061 12.661 9.26245 12.4563L3.44556 9.09589C3.25781 8.99359 3.03613 9.02765 2.86548 9.14716C2.6438 9.3006 2.38794 9.60767 2.13208 10.0512C1.87622 10.4947 1.73975 10.87 1.72266 11.1429C1.70557 11.3646 1.79102 11.5694 1.96143 11.6717L7.77832 15.0321ZM18.5588 8.80597C18.5588 9.21539 18.3884 9.59058 18.1326 9.86346C17.8596 10.1365 17.5012 10.29 17.075 10.29C16.6655 10.29 16.2903 10.1194 16.0173 9.86346C15.7444 9.59058 15.5908 9.23236 15.5908 8.80597L15.5908 2.10211C15.5908 1.88037 15.7273 1.70978 15.9321 1.62451C16.1709 1.50507 16.5632 1.43689 17.075 1.43689C17.5867 1.43689 17.979 1.50507 18.2178 1.62451C18.4055 1.72687 18.5588 1.88037 18.5588 2.10211L18.5588 8.80597ZM23.301 10.87C23.0964 11.2281 22.7722 11.467 22.397 11.5693C22.0217 11.6716 21.6294 11.6205 21.2712 11.4158C20.9131 11.2111 20.6741 10.887 20.5718 10.5117C20.4695 10.1364 20.5205 9.74414 20.7253 9.38586L24.0857 3.56909C24.188 3.38153 24.4099 3.31329 24.6145 3.33032C24.8875 3.34741 25.2627 3.48383 25.7063 3.73969C26.1497 3.99561 26.4568 4.2514 26.6104 4.47321C26.7297 4.6438 26.7639 4.86554 26.6616 5.05316L23.301 10.87ZM26.3716 15.0321C26.0134 15.2368 25.604 15.2709 25.2456 15.1856C24.8704 15.0833 24.5464 14.8444 24.3416 14.4862C24.137 14.1281 24.1028 13.7187 24.188 13.3604C24.2905 12.9852 24.5293 12.661 24.8875 12.4563L30.7043 9.09589C30.8918 8.99359 31.1138 9.02765 31.2842 9.14716C31.5061 9.3006 31.7617 9.60767 32.0176 10.0512C32.2737 10.4947 32.4099 10.87 32.427 11.1429C32.4441 11.3646 32.3589 11.5694 32.1882 11.6717L26.3716 15.0321Z" fill="#909090" fill-opacity="1.000000" fill-rule="nonzero"/>
		<path d="M63.4727 10.4094L66.2703 10.4094C66.3726 10.4094 66.4578 10.4775 66.509 10.5629L69.2896 17.6931L71.9846 10.5629C72.0188 10.4606 72.1211 10.4094 72.2234 10.4094L74.9697 10.4094C75.1575 10.4094 75.2769 10.597 75.1917 10.7505L68.3684 26.4097C68.3342 26.4949 68.2319 26.5632 68.1465 26.5632L65.7244 26.5632C65.5537 26.5632 65.4172 26.3755 65.5027 26.222L67.8396 20.7464L63.2681 10.7505C63.1658 10.5969 63.2852 10.4094 63.4727 10.4094ZM104.77 11.9958L104.77 10.6652C104.77 10.5287 104.89 10.4092 105.026 10.4092L107.5 10.4092C107.636 10.4092 107.755 10.5287 107.755 10.6652L107.755 21.2923C107.755 21.4287 107.636 21.5481 107.499 21.5481L105.026 21.5481C104.89 21.5481 104.77 21.4287 104.77 21.2923L104.77 19.8935C104.241 20.7123 103.081 21.787 101.188 21.787C97.5718 21.787 95.6953 19.0236 95.6953 15.936C95.6953 11.9104 98.4927 10.1874 101.103 10.1874C102.825 10.1703 104.02 10.9892 104.77 11.9957L104.77 11.9958ZM98.6804 15.9532C98.6804 17.8637 99.8574 19.3306 101.751 19.3306C103.644 19.3306 104.855 18.0513 104.855 16.0896C104.855 14.1279 103.678 12.6269 101.666 12.6269C99.7722 12.6269 98.6804 14.0939 98.6804 15.9532ZM109.99 21.2924L109.99 10.6652C109.99 10.5287 110.109 10.4092 110.246 10.4092L112.719 10.4092C112.856 10.4092 112.975 10.5287 112.975 10.6652L112.975 12.1151C113.555 11.1086 114.647 10.1874 116.506 10.1874C118.417 10.1874 120.549 11.1257 120.549 15.4413L120.549 21.2923C120.549 21.4287 120.429 21.5481 120.293 21.5481L117.819 21.5481C117.683 21.5481 117.563 21.4287 117.563 21.2923L117.563 15.4925C117.563 14.452 117.308 12.6609 115.466 12.6609C113.623 12.6609 112.975 14.2814 112.975 15.7825L112.975 21.2923C112.975 21.4287 112.856 21.5481 112.719 21.5481L110.246 21.5481C110.092 21.531 109.99 21.4287 109.99 21.2923L109.99 21.2924ZM122.664 21.2924L122.664 10.6652C122.664 10.5287 122.783 10.4092 122.92 10.4092L125.393 10.4092C125.53 10.4092 125.649 10.5287 125.649 10.6652L125.649 12.1151C126.229 11.1086 127.321 10.1874 129.18 10.1874C131.091 10.1874 133.223 11.1257 133.223 15.4413L133.223 21.2923C133.223 21.4287 133.104 21.5481 132.967 21.5481L130.494 21.5481C130.357 21.5481 130.238 21.4287 130.238 21.2923L130.238 15.4925C130.238 14.452 129.982 12.6609 128.14 12.6609C126.297 12.6609 125.649 14.2814 125.649 15.7825L125.649 21.2923C125.649 21.4287 125.53 21.5481 125.393 21.5481L122.92 21.5481C122.783 21.531 122.664 21.4288 122.664 21.2924ZM148.643 10.4094L151.048 10.4094C151.185 10.4094 151.304 10.5287 151.304 10.6652L151.304 12.8657C151.782 10.6823 153.658 9.93176 155.023 10.2559C155.142 10.2729 155.211 10.3752 155.211 10.4946L155.211 12.9169C155.211 13.0704 155.074 13.1898 154.904 13.1557C152.379 12.6609 151.355 14.0257 151.355 15.9361L151.355 21.2924C151.355 21.4288 151.236 21.5482 151.1 21.5482L148.626 21.5482C148.49 21.5482 148.37 21.4288 148.37 21.2924L148.37 10.6652C148.387 10.5287 148.507 10.4094 148.643 10.4094ZM47.0801 12.8316C46.3125 12.5757 45.9031 12.4222 45.2888 12.2175C44.6577 11.9958 43.583 11.3816 43.583 10.3923C43.583 9.40295 44.2654 8.77173 45.6472 8.77173C46.9094 8.77173 47.6086 9.38586 48.0693 10.3752C48.1375 10.5117 48.291 10.5629 48.4275 10.4946L50.4575 9.31763C50.5598 9.24945 50.6111 9.11292 50.5598 8.99353C49.9458 7.64594 48.5129 6.02539 45.6812 6.02539C42.5254 6.02539 40.5469 7.90179 40.5469 10.3752C40.5469 12.8317 42.1672 14.1109 44.3677 14.8615C45.1694 15.1344 45.4937 15.2538 46.176 15.4756C47.4724 15.9191 48.0693 16.499 48.0693 17.3008C48.0693 18.1026 47.5576 19.0577 45.5449 19.0577C43.7024 19.0577 43.0542 18.0854 42.679 17.1643C42.6279 17.0278 42.4573 16.9596 42.3208 17.0449L40.1885 18.2731C40.0862 18.3413 40.0352 18.4608 40.0862 18.5801C40.905 20.593 43.1396 21.787 45.6472 21.787C48.5981 21.787 51.0886 20.2859 51.0886 17.2496C51.0886 14.2133 47.8477 13.0875 47.0801 12.8317L47.0801 12.8316ZM63.3704 18.6313C63.302 18.5119 63.1316 18.4608 63.0122 18.546C62.0569 19.2454 60.9312 19.2625 60.0781 17.949C59.3618 16.8402 58.4919 15.4755 58.4919 15.4755L62.2444 10.8187C62.3811 10.6481 62.2615 10.4094 62.0569 10.4094L59.123 10.4094C59.0378 10.4094 58.9695 10.4435 58.9185 10.5117L55.6772 14.9638L55.6772 6.00842C55.6772 5.87189 55.5579 5.7525 55.4214 5.7525L52.948 5.7525C52.8115 5.7525 52.6921 5.87189 52.6921 6.00842L52.6921 21.2924C52.6921 21.4288 52.8115 21.5482 52.948 21.5482L55.4385 21.5482C55.575 21.5482 55.6943 21.4288 55.6943 21.2924L55.6943 16.3284C55.6943 16.3284 57.3491 18.9382 57.9802 19.9106C58.833 21.2411 60.0271 21.787 61.3235 21.787C62.5518 21.787 63.3362 21.4629 64.2744 20.5417C64.3599 20.4564 64.377 20.337 64.3257 20.2347L63.3704 18.6313ZM81.1277 15.1173C80.343 14.8274 80.0701 14.725 79.4731 14.5033C78.876 14.2816 78.3472 13.9574 78.3472 13.4798C78.3472 13.0022 78.7908 12.4734 79.6948 12.4734C80.4795 12.4734 80.9573 12.7804 81.23 13.3263C81.2983 13.4627 81.4519 13.4969 81.5713 13.4286L83.311 12.4222C83.4304 12.3539 83.4646 12.2004 83.3965 12.0811C82.9187 11.2452 81.9807 10.1876 79.7119 10.1876C76.9316 10.1876 75.4985 11.791 75.4985 13.5651C75.4985 15.3392 76.9485 16.1749 78.2791 16.7037C79.7803 17.3178 79.8826 17.3519 80.0701 17.4202C80.5308 17.6078 81.0935 17.8978 81.0935 18.4266C81.0935 18.9554 80.4795 19.433 79.5413 19.433C78.6714 19.433 77.6821 19.0748 77.2727 18.0684C77.2214 17.9319 77.0508 17.8637 76.9146 17.949L75.1575 18.9554C75.0552 19.0236 75.0039 19.1431 75.0552 19.2625C75.5669 20.593 77.085 21.77 79.5413 21.77C82.2024 21.77 83.9763 20.3541 83.9763 18.3583C83.9763 16.3625 82.6118 15.6632 81.1277 15.1173ZM91.1238 12.8316C92.2324 12.8316 93.0513 13.1728 93.8188 13.7186C93.9382 13.8039 94.1089 13.7698 94.177 13.6504L95.2004 11.8763C95.2688 11.757 95.2346 11.6205 95.1152 11.5522C94.0576 10.8358 92.7444 10.1705 90.9702 10.1705C89.2131 10.1705 87.5928 10.6481 86.4329 11.8251C85.2729 12.9851 84.7441 14.3668 84.7441 16.0044C84.7441 17.983 85.5627 19.2454 86.45 20.1324C87.3369 21.0195 88.9402 21.77 90.9873 21.77C92.8296 21.77 94.1941 21.0024 95.1323 20.3882C95.2346 20.3201 95.2688 20.1666 95.2004 20.0641L94.1941 18.3073C94.126 18.1878 93.9553 18.1367 93.8359 18.2219C93.1707 18.6995 92.2156 19.1089 91.1409 19.1089C89.9297 19.1089 87.7292 18.4266 87.7292 15.9702C87.7292 13.5138 89.9126 12.8316 91.1238 12.8316ZM141.308 19.3137C140.319 19.3137 139.381 19.0748 138.698 18.5291C138.016 17.9832 137.692 17.4202 137.692 16.7549L146.528 16.7549C146.665 16.7549 146.784 16.6355 146.784 16.499C146.733 13.8721 145.88 12.644 145.061 11.808C144.208 10.9551 142.758 10.1705 140.848 10.1705C138.937 10.1705 137.47 10.8699 136.464 11.8594C135.474 12.8487 134.724 14.1109 134.724 16.0214C134.724 17.9319 135.491 19.1942 136.43 20.1324C137.368 21.0707 138.903 21.77 141.104 21.77C143.185 21.77 144.942 21.0364 146.204 19.5865C146.306 19.4672 146.272 19.2795 146.136 19.2113L144.379 18.1878C144.293 18.1365 144.174 18.1365 144.089 18.2219C143.219 19.0407 142.11 19.3137 141.308 19.3137ZM140.831 12.5587C142.247 12.5587 143.543 13.4116 143.748 14.9467L137.794 14.9467C138.187 13.2922 139.415 12.5587 140.831 12.5587Z" fill="#909090" fill-opacity="1.000000" fill-rule="nonzero"/>
	</g>
</svg>
