<svg width="16.941162" height="16.000000" viewBox="0 0 16.9412 16" fill="none" xmlns="http://www.w3.org/2000/svg" xmlns:xlink="http://www.w3.org/1999/xlink">
	<desc>
			Created with Pixso.
	</desc>
	<defs/>
	<path d="M7.68359 0.518692C7.97461 -0.172897 8.96631 -0.172897 9.25757 0.518692L10.9761 4.60057C11.0989 4.89212 11.3765 5.09134 11.6951 5.11656L16.1558 5.46986C16.9114 5.52971 17.2178 6.46147 16.6421 6.94876L13.2437 9.82474C13.0007 10.0302 12.8948 10.3526 12.969 10.6597L14.0073 14.9599C14.1831 15.6884 13.3809 16.2644 12.7339 15.874L8.91479 13.5695C8.64209 13.4049 8.29907 13.4049 8.02637 13.5695L4.20728 15.874C3.5603 16.2644 2.75806 15.6884 2.93384 14.9599L3.97217 10.6597C4.04639 10.3526 3.94043 10.0302 3.69751 9.82474L0.299072 6.94876C-0.276855 6.46147 0.0297852 5.52971 0.7854 5.46986L5.24609 5.11656C5.5647 5.09134 5.84229 4.89212 5.96509 4.60057L7.68359 0.518692Z" fill="#F9B811" fill-opacity="1.000000" fill-rule="nonzero"/>
</svg>
