<svg width="89.717285" height="28.000000" viewBox="0 0 89.7173 28" fill="none" xmlns="http://www.w3.org/2000/svg" xmlns:xlink="http://www.w3.org/1999/xlink">
	<desc>
			Created with Pixso.
	</desc>
	<defs/>
	<path id="Vector" d="M47.2839 7.0354C47.2839 8.04449 46.4707 8.85706 45.4617 8.85706C44.4526 8.85706 43.6401 8.04449 43.6401 7.0354C43.6401 6.02631 44.4248 5.21381 45.4617 5.21381C46.4993 5.24176 47.2839 6.05463 47.2839 7.0354ZM39.7722 10.7073L39.7722 11.1558C39.7722 11.1558 38.9036 10.0342 37.0537 10.0342C33.999 10.0342 31.6162 12.3607 31.6162 15.5837C31.6162 18.7789 33.9709 21.1331 37.0537 21.1331C38.9316 21.1331 39.7722 19.9841 39.7722 19.9841L39.7722 20.4603C39.7722 20.6846 39.9407 20.8523 40.1648 20.8523L42.4346 20.8523L42.4346 10.3136L40.1648 10.3136C39.9407 10.3145 39.7722 10.511 39.7722 10.7073ZM39.7722 17.4615C39.3523 18.0784 38.511 18.611 37.5022 18.611C35.7087 18.611 34.335 17.4899 34.335 15.5837C34.335 13.6777 35.7087 12.5566 37.5022 12.5566C38.4834 12.5566 39.3801 13.1172 39.7722 13.7057L39.7722 17.4615ZM44.1167 10.3145L46.8071 10.3145L46.8071 20.8531L44.1167 20.8531L44.1167 10.3145ZM84.3083 10.0339C82.4585 10.0339 81.5894 11.1555 81.5894 11.1555L81.5894 5.24176L78.8989 5.24176L78.8989 20.8531L81.1694 20.8531C81.3936 20.8531 81.5613 20.6569 81.5613 20.4606L81.5613 19.9843C81.5613 19.9843 82.4304 21.1334 84.2798 21.1334C87.3352 21.1334 89.7173 18.7798 89.7173 15.5845C89.7173 12.3892 87.3352 10.0339 84.3083 10.0339ZM83.8599 18.5826C82.8225 18.5826 82.01 18.0507 81.5894 17.4336L81.5894 13.6777C82.01 13.1172 82.9067 12.5286 83.8599 12.5286C85.6536 12.5286 87.0269 13.6497 87.0269 15.5557C87.0269 17.4615 85.6538 18.5826 83.8599 18.5826ZM77.4978 14.6031L77.4978 20.8812L74.8069 20.8812L74.8069 14.9111C74.8069 13.1738 74.2463 12.4727 72.7336 12.4727C71.9211 12.4727 71.0801 12.8932 70.5466 13.51L70.5466 20.8535L67.8567 20.8535L67.8567 10.3147L69.9861 10.3147C70.2104 10.3147 70.3787 10.511 70.3787 10.7073L70.3787 11.1558C71.1636 10.3427 72.2002 10.0342 73.2371 10.0342C74.4146 10.0342 75.3955 10.371 76.1804 11.0435C77.1331 11.8284 77.4978 12.8372 77.4978 14.6031ZM61.3254 10.0339C59.4761 10.0339 58.6069 11.1555 58.6069 11.1555L58.6069 5.24176L55.9165 5.24176L55.9165 20.8531L58.1863 20.8531C58.4106 20.8531 58.5789 20.6569 58.5789 20.4606L58.5789 19.9843C58.5789 19.9843 59.448 21.1334 61.2974 21.1334C64.3525 21.1334 66.7349 18.7798 66.7349 15.5845C66.7629 12.3889 64.3806 10.0339 61.3254 10.0339ZM60.8767 18.5826C59.8398 18.5826 59.0273 18.0507 58.6069 17.4336L58.6069 13.6777C59.0273 13.1172 59.9243 12.5286 60.8767 12.5286C62.6709 12.5286 64.0439 13.6497 64.0439 15.5557C64.0439 17.4615 62.6709 18.5826 60.8767 18.5826ZM53.5898 10.0339C54.4023 10.0339 54.823 10.1744 54.823 10.1744L54.823 12.6686C54.823 12.6686 52.5808 11.9118 51.1797 13.5097L51.1797 20.8809L48.4888 20.8809L48.4888 10.3145L50.7593 10.3145C50.9834 10.3145 51.1511 10.5107 51.1511 10.707L51.1511 11.1555C51.6562 10.5667 52.7493 10.0339 53.5898 10.0339ZM25.6467 19.9C25.5068 19.5638 25.3665 19.1995 25.2266 18.8909C25.002 18.3867 24.7776 17.9099 24.582 17.4615L24.554 17.4336C22.6196 13.2292 20.5461 8.96936 18.3596 4.7655L18.2756 4.59692C18.0457 4.16083 17.8215 3.72168 17.6033 3.2796C17.3228 2.77472 17.0427 2.24274 16.5942 1.73792C15.6975 0.616821 14.408 0 13.0349 0C11.6333 0 10.3723 0.616821 9.44775 1.68164C9.0271 2.18591 8.71851 2.71844 8.43848 3.22333C8.21973 3.66516 7.99561 4.10431 7.76636 4.54065L7.68213 4.70923C5.52393 8.91309 3.42188 13.1732 1.48804 17.3773L1.45972 17.433C1.26367 17.8821 1.03906 18.3584 0.814941 18.8624C0.674805 19.171 0.534912 19.5072 0.394775 19.8715C0.0302734 20.9083 -0.0820312 21.8894 0.0585938 22.8988C0.366943 25.001 1.76807 26.7661 3.70215 27.5515C4.43091 27.86 5.18774 28 5.97241 28C6.19653 28 6.47656 27.972 6.70117 27.9437C7.62622 27.8317 8.5791 27.5237 9.50415 26.9911C10.6533 26.3464 11.7463 25.4218 12.9795 24.0764C14.2126 25.4218 15.3337 26.3464 16.4548 26.9911C17.3801 27.5237 18.3328 27.8317 19.2576 27.9437C19.4819 27.9723 19.7625 28 19.9866 28C20.7715 28 21.5562 27.86 22.2566 27.5515C24.2188 26.7661 25.5918 24.973 25.9004 22.8988C26.123 21.918 26.011 20.9374 25.6467 19.9ZM13.0066 21.3574C11.4929 19.4515 10.512 17.6578 10.176 16.1448C10.0359 15.4999 10.0076 14.9394 10.092 14.4348C10.1477 13.9863 10.3162 13.5938 10.5405 13.2574C11.073 12.5012 11.97 12.0244 13.0071 12.0244C14.0444 12.0244 14.9692 12.4729 15.4736 13.2574C15.698 13.5938 15.866 13.9866 15.9226 14.4348C16.0063 14.9396 15.9783 15.528 15.8384 16.1448C15.501 17.6298 14.5198 19.4238 13.0066 21.3574ZM24.1892 22.6748C23.9932 24.1321 23.012 25.3938 21.6389 25.9543C20.9663 26.2344 20.2373 26.3186 19.509 26.2344C18.8083 26.1501 18.1074 25.9258 17.3792 25.5058C16.3699 24.9447 15.3611 24.0764 14.1838 22.7868C16.0334 20.5168 17.1545 18.4424 17.5752 16.593C17.7712 15.7239 17.7996 14.9394 17.7151 14.2103C17.6033 13.5097 17.3508 12.8649 16.9585 12.3044C16.0891 11.0427 14.6316 10.3145 13.0063 10.3145C11.3813 10.3145 9.92358 11.0713 9.05493 12.3044C8.6626 12.8649 8.40991 13.5097 8.2981 14.2103C8.18604 14.9394 8.21362 15.752 8.43799 16.593C8.8584 18.4424 10.0073 20.5446 11.8291 22.8148C10.6799 24.1042 9.64282 24.9733 8.63379 25.5338C7.90479 25.9543 7.20459 26.1786 6.50415 26.2623C5.74756 26.3466 5.01855 26.2344 4.37378 25.9824C3.00073 25.4218 2.01978 24.1602 1.82373 22.7028C1.73975 22.0023 1.79541 21.3017 2.07593 20.5168C2.15967 20.2363 2.30029 19.9563 2.44019 19.6201C2.63647 19.1715 2.86035 18.6946 3.08472 18.2184L3.11304 18.1627C5.04663 13.9863 7.12061 9.72614 9.27881 5.57831L9.36279 5.40979C9.5874 4.98981 9.81177 4.54126 10.0356 4.12067C10.26 3.67212 10.512 3.25159 10.8206 2.88702C11.4089 2.21503 12.1936 1.85022 13.0627 1.85022C13.9319 1.85022 14.7163 2.21503 15.3049 2.88702C15.6135 3.25244 15.8655 3.67297 16.0896 4.12067C16.3142 4.54126 16.5386 4.98981 16.7622 5.40979L16.8464 5.57831C18.9719 9.74341 21.0181 13.9482 22.9846 18.1907L22.9846 18.2187C23.2092 18.6678 23.405 19.1718 23.6294 19.6209C23.7693 19.9566 23.9097 20.2366 23.9937 20.5172C24.2173 21.2451 24.3013 21.9462 24.1892 22.6748Z" fill="#909090" fill-opacity="1.000000" fill-rule="nonzero"/>
</svg>
