<svg width="24.000000" height="24.000000" viewBox="0 0 24 24" fill="none" xmlns="http://www.w3.org/2000/svg" xmlns:xlink="http://www.w3.org/1999/xlink">
	<desc>
			Created with Pixso.
	</desc>
	<defs/>
	<g opacity="0.000000"/>
	<path id="Vector" d="M16.75 3.56L16.75 2C16.75 1.59003 16.4099 1.25 16 1.25C15.5901 1.25 15.25 1.59003 15.25 2L15.25 3.5L8.75 3.5L8.75 2C8.75 1.59003 8.40991 1.25 8 1.25C7.59009 1.25 7.25 1.59003 7.25 2L7.25 3.56C4.55005 3.81 3.23999 5.41998 3.04004 7.81C3.02002 8.09998 3.26001 8.34003 3.54004 8.34003L20.46 8.34003C20.75 8.34003 20.99 8.09003 20.96 7.81C20.76 5.41998 19.45 3.81 16.75 3.56Z" fill="#35AFF4" fill-opacity="1.000000" fill-rule="nonzero"/>
	<path id="Vector" d="M20 9.84003L4 9.84003C3.44995 9.84003 3 10.29 3 10.84L3 17C3 20 4.5 22 8 22L16 22C19.5 22 21 20 21 17L21 10.84C21 10.29 20.55 9.84003 20 9.84003ZM9.20996 18.21C9.11011 18.3 9 18.3701 8.87988 18.42C8.76001 18.47 8.62988 18.5 8.5 18.5C8.37012 18.5 8.23999 18.47 8.12012 18.42C8 18.3701 7.88989 18.3 7.79004 18.21C7.61011 18.02 7.5 17.76 7.5 17.5C7.5 17.2401 7.61011 16.98 7.79004 16.79C7.88989 16.7 8 16.63 8.12012 16.58C8.36011 16.48 8.63989 16.48 8.87988 16.58C9 16.63 9.11011 16.7 9.20996 16.79C9.38989 16.98 9.5 17.2401 9.5 17.5C9.5 17.76 9.38989 18.02 9.20996 18.21ZM9.41992 14.38C9.37012 14.5 9.30005 14.61 9.20996 14.71C9.11011 14.8 9 14.8701 8.87988 14.92C8.76001 14.97 8.62988 15 8.5 15C8.37012 15 8.23999 14.97 8.12012 14.92C8 14.8701 7.88989 14.8 7.79004 14.71C7.69995 14.61 7.62988 14.5 7.58008 14.38C7.53003 14.26 7.5 14.13 7.5 14C7.5 13.8701 7.53003 13.7401 7.58008 13.6201C7.62988 13.5 7.69995 13.39 7.79004 13.29C7.88989 13.2 8 13.13 8.12012 13.08C8.36011 12.98 8.63989 12.98 8.87988 13.08C9 13.13 9.11011 13.2 9.20996 13.29C9.30005 13.39 9.37012 13.5 9.41992 13.6201C9.46997 13.7401 9.5 13.8701 9.5 14C9.5 14.13 9.46997 14.26 9.41992 14.38ZM12.71 14.71C12.6101 14.8 12.5 14.8701 12.3799 14.92C12.26 14.97 12.1299 15 12 15C11.8701 15 11.74 14.97 11.6201 14.92C11.5 14.8701 11.3899 14.8 11.29 14.71C11.1101 14.52 11 14.26 11 14C11 13.7401 11.1101 13.48 11.29 13.29C11.3899 13.2 11.5 13.13 11.6201 13.08C11.8601 12.97 12.1399 12.97 12.3799 13.08C12.5 13.13 12.6101 13.2 12.71 13.29C12.8899 13.48 13 13.7401 13 14C13 14.26 12.8899 14.52 12.71 14.71Z" fill="#35AFF4" fill-opacity="1.000000" fill-rule="nonzero"/>
</svg>
