<svg width="24.000000" height="24.000000" viewBox="0 0 24 24" fill="none" xmlns="http://www.w3.org/2000/svg" xmlns:xlink="http://www.w3.org/1999/xlink">
	<desc>
			Created with Pixso.
	</desc>
	<defs/>
	<path d="M8 3.82703L8 17.3828C8 17.6061 7.84766 17.7949 7.65015 17.8992C7.64355 17.9027 7.63672 17.9063 7.63013 17.91L5.28003 19.25C3.64014 20.19 2.29004 19.41 2.29004 17.51L2.29004 7.77997C2.29004 7.14996 2.73999 6.37 3.30005 6.04999L7.63013 3.57001C7.80933 3.47217 8 3.62268 8 3.82703Z" fill="#35AFF4" fill-opacity="1.000000" fill-rule="nonzero"/>
	<path d="M15 6.55035L15 19.7035C15 20.072 14.615 20.3139 14.283 20.1539L10.033 18.1063C9.85986 18.023 9.75 17.848 9.75 17.6559L9.75 4.44562C9.75 4.07471 10.1396 3.83295 10.4719 3.9975L14.7219 6.10229C14.8923 6.18665 15 6.36029 15 6.55035Z" fill="#35AFF4" fill-opacity="1.000000" fill-rule="nonzero"/>
	<g opacity="0.000000"/>
	<path d="M22 6.48999L22 16.22C22 16.85 21.55 17.63 20.99 17.95L17.4985 19.951C17.1653 20.142 16.75 19.9014 16.75 19.5172L16.75 6.33032C16.75 6.15082 16.8462 5.98505 17.0022 5.89606L19.01 4.75C20.6499 3.81 22 4.59003 22 6.48999Z" fill="#35AFF4" fill-opacity="1.000000" fill-rule="nonzero"/>
	<g opacity="0.000000"/>
</svg>
