<svg width="140.000000" height="140.000000" viewBox="0 0 140 140" fill="none" xmlns="http://www.w3.org/2000/svg" xmlns:xlink="http://www.w3.org/1999/xlink">
	<desc>
			Created with Pixso.
	</desc>
	<defs/>
	<path d="M59.8695 13.1741C60.3272 13.105 60.6556 12.6702 60.5852 12.2038C60.5157 11.7432 60.0732 11.4219 59.6155 11.491C59.152 11.561 58.8298 11.9978 58.8993 12.4584C58.9697 12.9248 59.406 13.2441 59.8695 13.1741Z" fill="#181818" fill-opacity="1.000000" fill-rule="evenodd"/>
	<path d="" fill="#181818" fill-opacity="1.000000" fill-rule="evenodd"/>
	<path d="M36.0919 18.2944C35.5892 17.3806 35.8606 16.5489 36.6382 16.1208C37.3953 15.7039 38.1286 15.949 38.5862 16.7807L40.5194 20.2947L41.6358 19.6801L39.6291 16.0325C38.8482 14.613 37.6599 14.3007 36.4871 14.9465C35.6248 15.4212 35.2816 16.1285 35.3493 16.8839L35.2801 16.922L34.7675 15.9902L33.6947 16.5808L36.8494 22.3153L37.9658 21.7007L36.0919 18.2944Z" fill="#181818" fill-opacity="1.000000" fill-rule="evenodd"/>
	<path d="M21.4475 37.9013L22.2915 36.9192L19.5755 32.8291L19.6385 32.7558L24.0882 34.8283L24.936 33.8418L21.2263 28.1166L20.3671 29.1165L23.1638 33.2025L23.1218 33.2514L18.662 31.1007L17.8047 32.0984L20.6096 36.2108L20.5695 36.2575L16.0881 34.0959L15.2289 35.0958L21.4475 37.9013Z" fill="#181818" fill-opacity="1.000000" fill-rule="evenodd"/>
	<path d="M14.7324 53.391C15.3672 51.6579 14.5142 50.0597 12.6135 49.3629C10.7017 48.6622 9.01854 49.3308 8.38377 51.0639C7.75 52.7943 8.60296 54.3925 10.5147 55.0932C12.4155 55.7899 14.0987 55.1214 14.7324 53.391ZM13.7304 53.0175C13.3153 54.1509 12.1343 54.3171 10.9543 53.8845C9.77698 53.453 8.96917 52.5578 9.38429 51.4244C9.79639 50.2992 10.9911 50.1381 12.1684 50.5696C13.3485 51.0022 14.1425 51.8923 13.7304 53.0175Z" fill="#181818" fill-opacity="1.000000" fill-rule="evenodd"/>
	<path d="M12.2598 71.547C12.311 70.3557 11.6024 69.856 11.1938 69.6068L11.1983 69.5014L12.2169 69.5452L12.2704 68.3013L3.55091 67.9259L3.49615 69.1992L6.73632 69.3387L6.73304 69.4148C6.31918 69.6286 5.56002 70.0299 5.50765 71.2475C5.43967 72.8281 6.63659 74.0438 8.75572 74.135C10.8719 74.2261 12.1915 73.1363 12.2598 71.547ZM11.186 71.2192C11.137 72.3578 10.1106 72.906 8.79928 72.8496C7.4997 72.7936 6.54994 72.1721 6.59941 71.0218C6.64712 69.9125 7.58017 69.3544 8.94707 69.4133C10.3227 69.4725 11.2332 70.1216 11.186 71.2192Z" fill="#181818" fill-opacity="1.000000" fill-rule="evenodd"/>
	<path d="" fill="#181818" fill-opacity="1.000000" fill-rule="evenodd"/>
	<path d="M6.90426 91.0264L7.29156 92.2405L15.6057 89.5863L15.2184 88.3721L6.90426 91.0264Z" fill="#181818" fill-opacity="1.000000" fill-rule="evenodd"/>
	<path d="M9.99723 98.7138L10.5323 99.8704L18.4522 96.2036L17.9171 95.047L9.99723 98.7138Z" fill="#181818" fill-opacity="1.000000" fill-rule="evenodd"/>
	<path d="M26.0811 107.551C24.969 106.078 23.1641 105.928 21.5489 107.149C19.9244 108.376 19.5741 110.154 20.6862 111.627C21.7965 113.097 23.6014 113.247 25.2259 112.019C26.8411 110.799 27.1914 109.021 26.0811 107.551ZM25.2244 108.191C25.9517 109.154 25.4514 110.237 24.4487 110.994C23.4482 111.75 22.2584 111.944 21.5312 110.981C20.8092 110.025 21.3211 108.933 22.3215 108.177C23.3243 107.419 24.5024 107.234 25.2244 108.191Z" fill="#181818" fill-opacity="1.000000" fill-rule="evenodd"/>
	<path d="M36.6837 117.424L35.6902 116.626L33.1887 119.742C32.6514 120.412 31.7482 120.479 31.0448 119.914C30.8392 119.749 30.6356 119.525 30.5758 119.436L29.8129 120.386C29.9024 120.481 30.0874 120.648 30.2153 120.751C30.8137 121.232 31.5985 121.302 32.2237 120.903L32.2762 120.945L31.6252 121.756L32.5867 122.528L36.6837 117.424Z" fill="#181818" fill-opacity="1.000000" fill-rule="evenodd"/>
	<path d="M48.3165 123.595C46.9157 122.939 45.6147 123.355 44.9471 124.45L46.0693 124.976C46.5158 124.402 47.1909 124.259 47.8515 124.568C48.8278 125.025 49.0753 126.135 48.4704 127.427C47.8755 128.698 46.8596 129.196 45.8966 128.745C45.1617 128.4 44.9333 127.727 45.0682 127.114L43.946 126.588C43.5079 127.842 44.1129 129.093 45.4606 129.724C47.132 130.507 48.8005 129.755 49.6475 127.946C50.4846 126.157 50.0357 124.401 48.3165 123.595Z" fill="#181818" fill-opacity="1.000000" fill-rule="evenodd"/>
	<path d="M60.4659 132.115C60.566 133.161 61.2459 133.945 62.6426 134.172C64.1 134.409 65.2602 133.808 65.4462 132.663C65.5952 131.747 65.1391 131.046 63.9712 130.58L62.9171 130.162C62.3179 129.923 62.071 129.597 62.1363 129.196C62.2176 128.695 62.8164 128.389 63.6406 128.523C64.3953 128.646 64.8256 129.048 64.8726 129.709L66.1201 129.722C66.095 128.542 65.248 127.745 63.7963 127.509C62.2377 127.256 61.0218 127.907 60.8315 129.078C60.6835 129.989 61.1732 130.648 62.3141 131.115L63.3026 131.516C63.9834 131.802 64.2543 132.09 64.1771 132.528C64.1025 133.024 63.504 133.291 62.7897 133.175C62.009 133.048 61.718 132.556 61.641 132.098L60.4659 132.115Z" fill="#181818" fill-opacity="1.000000" fill-rule="evenodd"/>
	<path d="" fill="#181818" fill-opacity="1.000000" fill-rule="evenodd"/>
	<path d="M81.7873 126.642C81.3316 126.724 81.0149 127.167 81.0977 127.632C81.1796 128.09 81.6305 128.399 82.0862 128.318C82.5477 128.236 82.8581 127.79 82.7763 127.332C82.6934 126.868 82.2487 126.56 81.7873 126.642Z" fill="#181818" fill-opacity="1.000000" fill-rule="evenodd"/>
	<path d="" fill="#181818" fill-opacity="1.000000" fill-rule="evenodd"/>
	<path d="M105.42 120.888C105.947 121.788 105.698 122.626 104.932 123.075C104.186 123.512 103.446 123.287 102.967 122.468L100.94 119.006L99.8407 119.651L101.944 123.243C102.763 124.641 103.959 124.922 105.114 124.245C105.963 123.747 106.288 123.031 106.2 122.278L106.268 122.238L106.805 123.156L107.862 122.536L104.555 116.888L103.455 117.533L105.42 120.888Z" fill="#181818" fill-opacity="1.000000" fill-rule="evenodd"/>
	<path d="M119.534 100.896L118.717 101.9L121.542 105.916L121.48 105.991L116.977 104.038L116.156 105.047L120.017 110.671L120.85 109.648L117.945 105.639L117.985 105.589L122.501 107.619L123.331 106.599L120.417 102.563L120.456 102.515L124.994 104.556L125.826 103.534L119.534 100.896Z" fill="#181818" fill-opacity="1.000000" fill-rule="evenodd"/>
	<path d="M125.833 85.232C125.245 86.9815 126.14 88.5563 128.059 89.2019C129.989 89.8512 131.653 89.1378 132.242 87.3883C132.829 85.6416 131.933 84.0668 130.004 83.4175C128.085 82.7719 126.42 83.4853 125.833 85.232ZM126.845 85.5786C127.229 84.4345 128.405 84.2367 129.596 84.6375C130.785 85.0374 131.616 85.9106 131.232 87.0547C130.85 88.1905 129.66 88.3836 128.471 87.9837C127.28 87.5829 126.463 86.7143 126.845 85.5786Z" fill="#181818" fill-opacity="1.000000" fill-rule="evenodd"/>
	<path d="M127.819 67.0164C127.8 68.2086 128.521 68.6891 128.937 68.9274L128.935 69.0328L127.915 69.0163L127.895 70.2612L136.622 70.403L136.642 69.1288L133.4 69.0761L133.401 68.9999C133.809 68.7751 134.557 68.3536 134.577 67.135C134.602 65.5532 133.373 64.3699 131.253 64.3355C129.135 64.3011 127.845 65.4258 127.819 67.0164ZM128.901 67.3152C128.92 66.1758 129.931 65.6003 131.243 65.6216C132.544 65.6428 133.51 66.2386 133.491 67.3898C133.473 68.5 132.556 69.0829 131.188 69.0606C129.811 69.0383 128.883 68.4137 128.901 67.3152Z" fill="#181818" fill-opacity="1.000000" fill-rule="evenodd"/>
	<path d="" fill="#181818" fill-opacity="1.000000" fill-rule="evenodd"/>
	<path d="M132.652 47.4004L132.232 46.1971L123.992 49.0729L124.412 50.2762L132.652 47.4004Z" fill="#181818" fill-opacity="1.000000" fill-rule="evenodd"/>
	<path d="M129.354 39.7986L128.788 38.6567L120.969 42.5341L121.535 43.676L129.354 39.7986Z" fill="#181818" fill-opacity="1.000000" fill-rule="evenodd"/>
	<path d="M113.04 31.3955C114.191 32.8383 115.999 32.9391 117.581 31.6759C119.173 30.4054 119.475 28.6192 118.324 27.1764C117.175 25.7359 115.367 25.6351 113.775 26.9056C112.193 28.1688 111.891 29.9551 113.04 31.3955ZM113.879 30.7329C113.127 29.7893 113.598 28.6934 114.58 27.9091C115.56 27.1267 116.744 26.901 117.497 27.8446C118.244 28.7812 117.761 29.8863 116.782 30.6687C115.799 31.4529 114.627 31.6695 113.879 30.7329Z" fill="#181818" fill-opacity="1.000000" fill-rule="evenodd"/>
	<path d="M102.177 21.8089L103.192 22.5802L105.609 19.398C106.128 18.7145 107.029 18.6229 107.748 19.169C107.957 19.3286 108.167 19.5468 108.229 19.6345L108.966 18.664C108.874 18.572 108.685 18.4096 108.554 18.3103C107.943 17.8458 107.157 17.7962 106.543 18.2125L106.489 18.1718L107.118 17.3436L106.136 16.5971L102.177 21.8089Z" fill="#181818" fill-opacity="1.000000" fill-rule="evenodd"/>
	<path d="M90.3833 15.9515C91.8012 16.57 93.0906 16.1192 93.7287 15.0072L92.5928 14.5117C92.1619 15.0972 91.4908 15.2584 90.8222 14.9667C89.834 14.5356 89.5569 13.4335 90.127 12.1256C90.6877 10.8392 91.6899 10.3142 92.6646 10.7394C93.4085 11.0639 93.6548 11.7307 93.5363 12.3471L94.6722 12.8425C95.0766 11.5774 94.4384 10.3433 93.0743 9.74829C91.3825 9.01034 89.7347 9.8066 88.9364 11.6382C88.1474 13.4484 88.6432 15.1925 90.3833 15.9515Z" fill="#181818" fill-opacity="1.000000" fill-rule="evenodd"/>
	<path d="M78.0103 7.76055C77.8822 6.71738 77.1816 5.95153 75.7793 5.76189C74.3161 5.564 73.1723 6.19572 73.017 7.34542C72.8926 8.26577 73.3673 8.95375 74.5472 9.38827L75.6121 9.77766C76.2175 10.0014 76.473 10.3198 76.4185 10.7234C76.3506 11.2256 75.7602 11.5478 74.9327 11.4359C74.175 11.3335 73.7341 10.9427 73.6694 10.2836L72.4221 10.3041C72.4786 11.4825 73.3467 12.2562 74.8041 12.4533C76.369 12.6649 77.567 11.9814 77.7259 10.8056C77.8495 9.89104 77.3425 9.24597 76.1894 8.80918L75.1905 8.43463C74.5024 8.16714 74.2239 7.88706 74.2893 7.44654C74.3506 6.94929 74.9418 6.66561 75.6589 6.76259C76.4427 6.8686 76.7468 7.35317 76.836 7.80869L78.0103 7.76055Z" fill="#181818" fill-opacity="1.000000" fill-rule="evenodd"/>
</svg>
