<svg width="153.456055" height="40.000000" viewBox="0 0 153.456 40" fill="none" xmlns="http://www.w3.org/2000/svg" xmlns:xlink="http://www.w3.org/1999/xlink">
	<desc>
			Created with Pixso.
	</desc>
	<defs>
		<clipPath id="clip359_195">
			<rect width="153.455963" height="40.000000" fill="white" fill-opacity="0"/>
		</clipPath>
	</defs>
	<rect width="153.455963" height="40.000000" fill="#FFFFFF" fill-opacity="0"/>
	<g clip-path="url(#clip359_195)">
		<path d="M76.2832 17.9816L76.2295 17.9816L74.6235 22.5159L77.8711 22.5159L76.2832 17.9816ZM79.1592 26.0942L78.3674 23.8636L74.1719 23.8636L73.3845 26.0942L71.5864 26.0942L75.3528 16.1754L77.3521 16.1754L81.0603 26.0942L79.1592 26.0942ZM94.3809 15.7728L96.1343 15.7728L96.1343 17.4336L94.3809 17.4336L94.3809 15.7728ZM94.3809 18.5349L96.094 18.5349L96.094 26.0942L94.3765 26.0942L94.3809 18.5349ZM81.7178 15.7728L83.4756 15.7728L83.4756 17.4336L81.7178 17.4336L81.7178 15.7728ZM81.7178 18.5349L83.4355 18.5349L83.4355 26.0942L81.7178 26.0942L81.7178 18.5349ZM92.4888 15.7839L90.7756 15.7839L90.7756 26.0942L92.4888 26.0942L92.4888 15.7839ZM87.0273 22.4099L87.0273 26.0942L85.3008 26.0942L85.3008 20.4806C85.3008 19.9385 85.2424 18.9097 85.2202 18.5406L86.6069 18.5406C86.7544 18.5406 86.8037 18.6019 86.8037 18.7473L86.8037 19.6866L86.8574 19.6866C86.9915 19.357 87.479 18.3783 88.9014 18.3783C89.3801 18.3783 89.7334 18.5349 89.7915 18.5572C89.7915 18.8815 89.738 19.5972 89.738 19.7873C89.738 19.9103 89.6709 19.9496 89.6128 19.9496C89.55 19.9496 89.5232 19.9496 89.4963 19.8937C89.3889 19.8378 89.1387 19.7761 88.7896 19.7761C87.8726 19.7761 87.0183 20.4359 87.0183 22.3817L87.0273 22.4099ZM102.634 26.0665L102.634 21.1851C102.634 20.2516 102.209 19.6866 101.417 19.6866C100.361 19.6866 99.6636 20.8107 99.6636 22.3204L99.6636 26.0665L97.9458 26.0665L97.9458 20.5142C97.9458 19.9049 97.8877 19.0103 97.8608 18.5125L99.2385 18.5125C99.3953 18.5125 99.4399 18.5742 99.4399 18.7137L99.4399 19.6589L99.4937 19.6589C99.6995 19.3011 100.227 18.3506 101.811 18.3506C103.434 18.3506 104.347 19.463 104.347 20.7155L104.347 26.0665L102.634 26.0665ZM107.384 21.5094L110.56 21.5094C110.627 20.2905 109.983 19.6084 109.021 19.6084C108.01 19.6084 107.429 20.3411 107.384 21.5094ZM111.615 24.4057C111.709 24.4057 111.741 24.4898 111.745 24.5734C111.799 24.8977 111.808 25.6246 111.799 25.8093C111.615 25.8706 110.694 26.2119 109.459 26.2119C107.049 26.2119 105.604 24.9648 105.604 22.2868C105.604 19.9886 106.834 18.3506 109.052 18.3506C111.231 18.3506 112.269 19.8096 112.269 21.6158C112.269 21.8283 112.269 22.1862 112.21 22.6671L107.362 22.6671C107.362 23.953 108.189 24.8812 109.706 24.8812C110.542 24.8812 111.208 24.5792 111.472 24.4504C111.526 24.4504 111.553 24.3945 111.615 24.3945L111.615 24.4057ZM115.637 26.2007C117.869 26.2007 118.933 25.2838 118.933 23.9307C118.933 22.5941 117.985 22.0296 116.979 21.6995C116.692 21.6047 116.406 21.5094 116.147 21.4199C115.458 21.1963 115.1 20.8943 115.1 20.4471C115.1 19.9774 115.529 19.6478 116.424 19.6478C117.22 19.6478 117.869 19.972 118.124 20.095C118.182 20.095 118.2 20.1509 118.267 20.1509C118.325 20.1509 118.392 20.095 118.406 19.9886C118.406 19.7314 118.459 19.2729 118.459 18.8314C118.249 18.7361 117.498 18.3506 116.29 18.3506C114.447 18.3506 113.311 19.3123 113.311 20.5759C113.311 21.806 114.152 22.3651 115.078 22.6724C115.288 22.7453 115.681 22.8737 115.914 22.952C116.876 23.2709 117.149 23.5616 117.149 24.0143C117.149 24.6016 116.522 24.8923 115.444 24.8923C114.563 24.8923 113.955 24.5681 113.713 24.4504C113.655 24.4504 113.633 24.3945 113.561 24.3945C113.44 24.3945 113.432 24.5623 113.432 24.5905C113.432 24.6741 113.378 25.4568 113.378 25.7141C113.579 25.8035 114.456 26.2007 115.628 26.2007L115.637 26.2007ZM14.5376 17.9422L14.4839 17.9422L12.8735 22.4769L16.1165 22.4769L14.5376 17.9422ZM17.4136 26.0554L16.6265 23.8242L12.4219 23.8242L11.6389 26.0554L9.84082 26.0554L13.6072 16.1306L15.6021 16.1306L19.3103 26.0554L17.4136 26.0554ZM45.437 15.7338L47.1904 15.7338L47.1904 17.3942L45.437 17.3942L45.437 15.7338ZM45.437 18.4959L47.1548 18.4959L47.1548 26.0942L45.437 26.0942L45.437 18.4959ZM41.7559 22.3705L41.7559 26.0554L40.0427 26.0554L40.0427 20.4417C40.0427 19.8991 39.98 18.8703 39.9578 18.4959L41.3398 18.4959C41.4875 18.4959 41.5366 18.563 41.5366 18.7084L41.5366 19.6478L41.5903 19.6478C41.7246 19.3176 42.2122 18.3394 43.6345 18.3394C44.113 18.3394 44.4709 18.4959 44.5247 18.5183C44.5247 18.8426 44.4709 19.5583 44.4709 19.7484C44.4709 19.8714 44.4038 19.9103 44.3413 19.9103C44.2786 19.9103 44.2517 19.9103 44.2249 19.8544C44.113 19.7985 43.8672 19.7314 43.5183 19.7314C42.6057 19.7314 41.7468 20.397 41.7468 22.3427L41.7559 22.3705ZM29.0747 26.0272L29.0747 21.1909C29.0747 20.3187 28.7124 19.6478 27.8223 19.6478C26.825 19.6478 26.2434 20.7378 26.2434 22.2756L26.2434 26.0272L24.5303 26.0272L24.5303 21.174C24.5303 20.3858 24.1992 19.6478 23.2778 19.6478C22.2668 19.6478 21.6943 20.7378 21.6943 22.3315L21.6943 26.0272L19.9812 26.0272L19.9812 20.52C19.9812 19.8096 19.9185 18.809 19.8962 18.4678L21.2649 18.4678C21.4214 18.4678 21.4707 18.5237 21.4797 18.6802L21.4797 19.6196L21.5332 19.6196C21.6406 19.4017 22.2043 18.3112 23.7832 18.3112C25.2458 18.3112 25.8049 19.3624 25.9436 19.6866C26.0779 19.4017 26.7354 18.3112 28.2114 18.3112C29.7458 18.3112 30.7969 19.1387 30.7969 20.7937L30.7969 26.0272L29.0747 26.0272ZM33.8252 21.4705L37.001 21.4705C37.0681 20.2516 36.4285 19.5695 35.4624 19.5695C34.4514 19.5695 33.8743 20.3017 33.8252 21.4705ZM38.0566 24.3668C38.1506 24.3668 38.1775 24.4504 38.1863 24.5345C38.24 24.8588 38.2444 25.5857 38.24 25.77C38.0566 25.8317 37.1353 26.1725 35.8962 26.1725C33.4897 26.1725 32.0449 24.9259 32.0449 22.2474C32.0449 19.9496 33.2749 18.3112 35.498 18.3112C37.6719 18.3112 38.7097 19.7708 38.7097 21.5765C38.7097 21.789 38.7097 22.1468 38.647 22.6223L33.8074 22.6223C33.8074 23.9136 34.6304 24.8418 36.1421 24.8418C36.9832 24.8418 37.6497 24.5399 37.918 24.4115C37.9717 24.4115 37.9939 24.3556 38.061 24.3556L38.0566 24.3668ZM59.5718 22.1804L59.2812 22.1804C57.1296 22.1804 56.7046 22.9296 56.7046 23.69C56.7046 24.3109 57.1118 24.9036 57.9167 24.9036C58.9905 24.9036 59.5718 23.869 59.5718 22.7842L59.5718 22.1804ZM59.9878 26.016C59.8491 26.016 59.7329 25.9601 59.7151 25.77C59.7151 25.5239 59.6614 25.0431 59.6614 25.0431C59.5583 25.1831 58.9321 26.1614 57.3623 26.1614C55.8594 26.1614 54.9961 24.9984 54.9961 23.7294C54.9961 21.9625 56.7092 21.0791 59.2544 21.0791L59.5898 21.0791L59.5898 20.7996C59.5898 20.0109 59.0217 19.586 57.9751 19.586C57.0266 19.586 56.2395 19.9161 55.9353 20.0727C55.9353 20.0727 55.8594 20.1286 55.8101 20.1286C55.7251 20.1286 55.6804 20.0727 55.6758 19.9886C55.6758 19.7037 55.6177 19.1557 55.6177 18.809C55.9309 18.6914 56.9551 18.3112 58.0823 18.3112C60.3323 18.3112 61.2939 19.3512 61.2939 21.0174L61.2939 23.9642C61.2939 25.0377 61.3923 25.7422 61.4326 26.0272L59.9878 26.016ZM54.061 24.3556C54.1147 24.3556 54.1729 24.3556 54.1819 24.5175C54.2356 24.8754 54.2356 25.468 54.2356 25.6528C53.8955 25.8205 53.1531 26.1614 52.2405 26.1614C49.9548 26.1614 48.5503 24.8306 48.5503 22.2309C48.5503 19.7985 49.7983 18.3 52.2405 18.3C53.0547 18.3 53.8018 18.5854 54.2356 18.809C54.2356 19.0775 54.1819 19.6866 54.1819 19.9438C54.1819 20.0503 54.1238 20.1004 54.061 20.1004C53.9895 20.1004 53.9673 20.1004 53.9224 20.0445C53.3767 19.7761 52.8579 19.6419 52.3882 19.6419C50.9346 19.6419 50.3306 20.5983 50.3306 22.2086C50.3306 23.6453 50.8093 24.7693 52.3882 24.7693C52.9919 24.7693 53.5378 24.5569 53.8777 24.3945C53.9761 24.3386 53.9851 24.3333 54.061 24.3333L54.061 24.3556ZM67.4668 25.9936L67.4668 21.1127C67.4668 20.1787 67.0417 19.6142 66.25 19.6142C65.1899 19.6142 64.4878 20.7324 64.4878 22.2474L64.4878 25.9936L62.7747 25.9936L62.7747 20.4417C62.7747 19.832 62.7209 18.9374 62.6941 18.4342L64.0674 18.4342C64.2239 18.4342 64.2686 18.5013 64.2686 18.6413L64.2686 19.586L64.3267 19.586C64.5325 19.2281 65.0647 18.2776 66.6392 18.2776C68.272 18.2776 69.1843 19.3906 69.1843 20.643L69.1843 25.9936L67.4668 25.9936ZM142.891 29.2424L143.101 29.9746L143.307 29.2424L143.481 29.2424L143.615 30.1594L143.481 30.1594L143.378 29.4101L143.168 30.1594L143.016 30.1594L142.81 29.4155L142.716 30.1594L142.587 30.1594L142.721 29.2424L142.891 29.2424ZM142.461 29.2424L142.461 29.3596L142.188 29.3596L142.188 30.1594L142.054 30.1594L142.054 29.3596L141.786 29.3596L141.786 29.2424L142.461 29.2424ZM120.405 9.84064L124.65 16.7903C125.258 17.7131 125.75 17.9757 127.316 17.9757L131.14 17.9757C127.606 13.5645 125.934 11.3055 125.388 10.8023C124.9 10.3268 124.413 9.84064 123.223 9.84064L120.405 9.84064ZM132.187 18.3394C130.442 18.3394 128.747 18.5125 127.902 18.915C127.182 19.3011 126.989 19.5413 126.989 19.9832C126.989 20.3858 127.065 20.7266 127.316 21.1238L129.414 24.5905C129.414 24.5905 129.266 24.1821 129.266 23.7182C129.266 21.5206 131.659 20.0727 134.652 20.0727C135.591 20.0727 135.993 20.2346 135.993 20.2346C135.703 19.2505 135.023 18.3394 132.187 18.3394ZM133.296 20.643C132.438 20.8049 131.677 21.118 131.109 21.5711C130.246 22.2474 129.767 23.2038 129.861 24.5569C129.861 24.691 129.924 25.0713 129.991 25.3786C130.044 25.5016 130.044 25.5074 130.044 25.6022L131.744 28.4314C132.464 29.5891 133.654 30.12 135.144 30.12L141.137 30.12L134.115 21.6047L133.296 20.643Z" fill="#909090" fill-opacity="1.000000" fill-rule="nonzero"/>
	</g>
</svg>
