<svg width="141.242920" height="40.000000" viewBox="0 0 141.243 40" fill="none" xmlns="http://www.w3.org/2000/svg" xmlns:xlink="http://www.w3.org/1999/xlink">
	<desc>
			Created with Pixso.
	</desc>
	<defs>
		<clipPath id="clip359_176">
			<rect width="141.242935" height="40.000000" fill="white" fill-opacity="0"/>
		</clipPath>
	</defs>
	<rect width="141.242935" height="40.000000" fill="#FFFFFF" fill-opacity="0"/>
	<g clip-path="url(#clip359_176)">
		<path d="M67.8911 31.2897L63.5005 31.2897C63.4727 31.2897 63.4727 31.2897 63.4587 31.2758L59.6792 26.6627L55.8999 31.2758C55.886 31.2897 55.8721 31.2897 55.8582 31.2897L52.3428 31.2897C52.3149 31.2897 52.301 31.2758 52.2871 31.262C52.2871 31.248 52.2871 31.2203 52.301 31.2064L57.8728 24.37L52.3704 17.6031C52.3567 17.5753 52.3567 17.5615 52.3567 17.5336C52.3704 17.5198 52.3843 17.5059 52.3982 17.5059L56.7891 17.5059C56.803 17.5059 56.8169 17.5198 56.8308 17.5336L60.1516 21.6466L63.5281 17.5336C63.542 17.5198 63.5559 17.5059 63.5698 17.5059L67.1409 17.5059C67.1548 17.5059 67.1826 17.5198 67.1965 17.5336C67.2104 17.5615 67.1965 17.5753 67.1826 17.6031L61.9719 23.8698L67.9468 31.2064C67.9607 31.2203 67.9607 31.248 67.9607 31.262C67.9329 31.2897 67.9189 31.2897 67.8911 31.2897Z" fill="#909090" fill-opacity="1.000000" fill-rule="nonzero"/>
		<path d="M91.6379 19.9236C89.6926 19.9236 88.3726 21.1047 87.9834 23.1472L94.5977 23.1472L94.5977 23.0083C94.5977 21.3826 93.3887 19.9236 91.6379 19.9236ZM98.0017 25.2593C97.988 25.2732 97.9741 25.287 97.9602 25.287L87.9141 25.287C88.1226 27.6215 89.637 28.9554 92.0964 28.9554C93.6111 28.9554 95.2229 28.4412 97.4878 27.2324C97.5293 27.2046 97.571 27.2463 97.571 27.288L97.571 30.3726C97.571 30.4005 97.5571 30.4143 97.5432 30.4143C95.4312 31.3036 93.3054 31.915 91.6379 31.915C87.3167 31.915 84.1763 28.7608 84.1763 24.4256C84.1763 20.0903 87.3167 16.9362 91.6379 16.9362C95.584 16.9362 98.113 19.5901 98.113 23.2445C98.113 23.842 98.0156 25.2176 98.0017 25.2593Z" fill="#909090" fill-opacity="1.000000" fill-rule="nonzero"/>
		<path d="M118.4 14.6435C117.163 14.6435 116.163 13.6569 116.163 12.4481C116.163 11.1975 117.163 10.1832 118.4 10.1832C119.636 10.1832 120.637 11.1975 120.637 12.4481C120.637 13.6569 119.636 14.6435 118.4 14.6435ZM116.593 31.2897C116.552 31.2897 116.538 31.2758 116.538 31.2341L116.538 17.5475C116.538 17.5197 116.552 17.4919 116.579 17.4919L120.206 17.4919C120.234 17.4919 120.248 17.5197 120.248 17.5475L120.248 31.2341C120.248 31.2758 120.22 31.2897 120.192 31.2897L116.593 31.2897Z" fill="#909090" fill-opacity="1.000000" fill-rule="nonzero"/>
		<path d="M74.533 29.2333C73.8799 29.2333 73.2129 29.136 72.4348 28.9415L72.4487 20.1598C73.3518 19.868 74.1299 19.743 74.9082 19.743C77.4231 19.743 79.1045 21.591 79.1045 24.3561C79.1045 27.3157 77.312 29.2333 74.533 29.2333ZM75.5195 16.9362C74.4912 16.9362 73.4631 17.1168 72.3792 17.4919L68.7666 17.4919C68.7388 17.4919 68.7109 17.5198 68.7109 17.5475L68.7109 39.988C69.7947 39.8351 71.1287 39.4461 72.4348 38.5291L72.4348 31.7065C73.324 31.8316 74.0605 31.915 74.769 31.915C79.7158 31.915 82.9116 28.9554 82.9116 24.37C82.9116 19.993 79.8687 16.9362 75.5195 16.9362Z" fill="#909090" fill-opacity="1.000000" fill-rule="nonzero"/>
		<path d="M109.993 28.0939C108.868 28.6913 107.853 28.9692 106.908 28.9692C104.671 28.9692 103.323 27.3853 103.323 24.7313C103.323 21.6744 105.033 19.6874 107.687 19.6874C108.423 19.6874 109.132 19.868 109.993 20.2571L109.993 28.0939ZM109.993 10.2527L109.993 17.4086C108.937 17.1029 108.006 16.9639 107.061 16.9639C102.754 16.9639 99.5164 20.2015 99.5164 24.509C99.5164 28.7886 102.379 31.9011 106.325 31.9011C107.687 31.9011 108.965 31.5537 110.466 30.7895L110.466 32.0262C111.452 31.8316 112.592 31.4426 113.717 30.6367L113.717 8.77979C112.619 8.93262 111.313 9.3078 109.993 10.2527Z" fill="#909090" fill-opacity="1.000000" fill-rule="nonzero"/>
		<path d="M132.823 28.066C131.725 28.6913 130.794 28.997 129.96 28.997C127.556 28.997 126.125 27.413 126.125 24.759C126.125 21.7438 127.82 19.7151 130.335 19.7151C131.002 19.7151 131.822 19.9791 132.823 20.5071L132.823 28.066ZM136.546 17.3252C136.546 17.2418 136.477 17.1724 136.394 17.1724L133.462 17.1724C133.378 17.1724 133.295 17.2418 133.295 17.3252L133.295 17.8254L133.226 17.8254C131.878 17.2279 130.71 16.9639 129.585 16.9639C125.528 16.9639 122.346 20.3265 122.346 24.634C122.346 28.9832 125.194 31.9011 129.432 31.9011C130.558 31.9011 132.017 31.8177 133.378 30.2615L133.378 32.0261C134.337 31.8177 135.477 31.4147 136.546 30.6367L136.546 17.3252Z" fill="#909090" fill-opacity="1.000000" fill-rule="nonzero"/>
		<path d="M42.3105 27.8715L51.4119 27.8715C51.2729 28.8859 50.9255 30.0808 50.1475 31.2897L40.6848 31.2897C39.5315 31.2897 38.5728 30.3865 38.4617 29.261C38.4617 29.2471 38.4478 29.2332 38.4478 29.2054L38.4478 11.2531C38.4478 11.2392 38.4617 11.2253 38.4617 11.2114C38.5728 10.072 39.5315 9.16882 40.6848 9.16882L51.3979 9.16882C51.259 10.1832 50.9116 11.4059 50.1196 12.6148L42.3105 12.6148L42.3105 17.5059L50.05 17.5059C50.0779 17.5059 50.1057 17.5336 50.1057 17.5614L50.1057 20.9518C50.1057 20.9796 50.0779 21.0074 50.05 21.0074L42.3105 21.0074L42.3105 27.8715Z" fill="#909090" fill-opacity="1.000000" fill-rule="nonzero"/>
		<path d="M30.9165 31.5815C30.0134 31.5815 29.4575 30.8729 29.4575 30.0114C29.4575 29.0943 30.0967 28.4412 30.9165 28.4412C31.7224 28.4412 32.3616 29.0804 32.3616 30.0114C32.3616 30.9423 31.7224 31.5815 30.9165 31.5815ZM30.9165 28.2745C29.9995 28.2745 29.2075 28.9692 29.2075 30.0114C29.2075 30.9979 29.9163 31.7482 30.9165 31.7482C31.8198 31.7482 32.6118 31.0535 32.6118 30.0114C32.6118 28.9692 31.8337 28.2745 30.9165 28.2745Z" fill="#909090" fill-opacity="1.000000" fill-rule="nonzero"/>
		<path d="M30.5134 29.8724L30.5134 29.2332L30.9441 29.2332C31.1665 29.2332 31.4165 29.261 31.4165 29.525C31.4165 29.8446 31.1804 29.8585 30.9165 29.8585C30.9026 29.8724 30.5134 29.8724 30.5134 29.8724ZM31.7224 29.5667C31.7224 29.1499 31.4722 28.9692 30.9719 28.9692L30.1938 28.9692L30.1938 31.0257L30.5273 31.0257L30.5273 30.1503L30.8469 30.1503L31.375 31.0257L31.7639 31.0257L31.1943 30.1225C31.5 30.0947 31.7224 29.9419 31.7224 29.5667Z" fill="#909090" fill-opacity="1.000000" fill-rule="nonzero"/>
		<path d="M139.548 19.7707C138.645 19.7707 138.089 19.0621 138.089 18.2006C138.089 17.2835 138.728 16.6304 139.548 16.6304C140.354 16.6304 140.993 17.2696 140.993 18.2006C140.993 19.1315 140.354 19.7707 139.548 19.7707ZM139.548 16.4776C138.631 16.4776 137.839 17.1724 137.839 18.2145C137.839 19.201 138.548 19.9514 139.548 19.9514C140.451 19.9514 141.243 19.2566 141.243 18.2145C141.243 17.1584 140.451 16.4776 139.548 16.4776Z" fill="#909090" fill-opacity="1.000000" fill-rule="nonzero"/>
		<path d="M139.131 18.0616L139.131 17.4363L139.562 17.4363C139.784 17.4363 140.034 17.4642 140.034 17.7281C140.034 18.0477 139.798 18.0616 139.534 18.0616L139.131 18.0616ZM140.354 17.7698C140.354 17.353 140.104 17.1724 139.603 17.1724L138.825 17.1724L138.825 19.2288L139.159 19.2288L139.159 18.3535L139.478 18.3535L140.006 19.2288L140.395 19.2288L139.826 18.3256C140.117 18.2979 140.354 18.145 140.354 17.7698Z" fill="#909090" fill-opacity="1.000000" fill-rule="nonzero"/>
		<path d="M19.1753 12.6009L18.5222 10.739L12.9087 3.24951L13.9092 2.99939L23.5662 11.3503L29.2493 9.72461C29.9163 9.55786 30.6804 9.51617 31.25 9.51617C29.4717 5.66724 26.1924 2.49921 21.8848 0.970764C13.3672 -2.07227 3.98804 2.38806 0.958984 10.9196C0.0141602 13.5596 -0.194336 16.2831 0.194824 18.8676L13.7979 14.1432L19.1753 12.6009Z" fill="#909090" fill-opacity="1.000000" fill-rule="nonzero"/>
		<path d="M31.8613 10.9891C31.3611 11.3087 30.6248 11.7394 29.9021 11.9756L24.2051 13.6013L20.4119 25.8011L19.4253 26.1207L20.2312 16.8111L19.7866 14.8797L14.4509 16.4081L0.333496 19.7012C1.45898 25.1203 5.29395 29.8585 10.8938 31.8455C19.4253 34.8885 28.7905 30.4282 31.8335 21.8967C33.1396 18.2422 33.0564 14.4072 31.8613 10.9891Z" fill="#909090" fill-opacity="1.000000" fill-rule="nonzero"/>
		<path d="M19.7727 14.8658L20.2173 16.7972L19.4114 26.1069L20.3979 25.7873L24.1912 13.5875L29.8882 11.9617C30.6108 11.7255 31.3472 11.3087 31.8474 10.9752C31.6667 10.475 31.4722 9.98865 31.25 9.50232C30.6663 9.50232 29.916 9.53009 29.249 9.71075L23.5659 11.3364L13.9089 2.98553L12.9084 3.23566L18.5083 10.725L19.1614 12.587L13.7839 14.1293L0.180664 18.8536C0.222412 19.1315 0.277832 19.4233 0.333496 19.7012L14.437 16.3804L19.7727 14.8658Z" fill="#909090" fill-opacity="1.000000" fill-rule="nonzero"/>
	</g>
</svg>
