<svg width="25.000000" height="24.000000" viewBox="0 0 25 24" fill="none" xmlns="http://www.w3.org/2000/svg" xmlns:xlink="http://www.w3.org/1999/xlink">
	<desc>
			Created with Pixso.
	</desc>
	<defs/>
	<rect id="Frame 75" rx="12.000000" width="25.000000" height="24.000000" fill="#35AFF4" fill-opacity="1.000000"/>
	<path id="2" d="M10.256 11.192L8.688 11C8.67733 10.904 8.672 10.7653 8.672 10.584C8.672 9.656 8.99733 8.86667 9.648 8.216C10.2987 7.55467 11.168 7.224 12.256 7.224C13.3333 7.224 14.1867 7.53333 14.816 8.152C15.4453 8.76 15.76 9.512 15.76 10.408C15.76 11.72 15.1093 12.7867 13.808 13.608L11.76 14.92C11.024 15.3893 10.6027 15.8747 10.496 16.376L15.824 16.376L15.824 17.832L8.56 17.832C8.58133 16.9573 8.77867 16.1893 9.152 15.528C9.536 14.8667 10.16 14.2587 11.024 13.704L12.752 12.584C13.7013 11.976 14.176 11.256 14.176 10.424C14.176 9.912 14.0053 9.48 13.664 9.128C13.3227 8.776 12.8427 8.6 12.224 8.6C11.5733 8.6 11.0773 8.79733 10.736 9.192C10.3947 9.58667 10.224 10.0987 10.224 10.728C10.224 10.824 10.2347 10.9787 10.256 11.192Z" fill="#FFFFFF" fill-opacity="1.000000" fill-rule="evenodd"/>
</svg>
