<svg width="24.000000" height="24.000000" viewBox="0 0 24 24" fill="none" xmlns="http://www.w3.org/2000/svg" xmlns:xlink="http://www.w3.org/1999/xlink">
	<desc>
			Created with Pixso.
	</desc>
	<defs/>
	<path id="Vector" d="M11.5 21.75C5.8501 21.75 1.25 17.15 1.25 11.5C1.25 5.84998 5.8501 1.25 11.5 1.25C17.1499 1.25 21.75 5.84998 21.75 11.5C21.75 17.15 17.1499 21.75 11.5 21.75ZM11.5 2.75C6.66992 2.75 2.75 6.67999 2.75 11.5C2.75 16.32 6.66992 20.25 11.5 20.25C16.3301 20.25 20.25 16.32 20.25 11.5C20.25 6.67999 16.3301 2.75 11.5 2.75Z" fill="#FFFFFF" fill-opacity="1.000000" fill-rule="nonzero"/>
	<path id="Vector" d="M22 22.75C21.8101 22.75 21.6199 22.68 21.47 22.53L19.47 20.53C19.1799 20.24 19.1799 19.76 19.47 19.47C19.76 19.18 20.24 19.18 20.53 19.47L22.53 21.47C22.8198 21.76 22.8198 22.24 22.53 22.53C22.3799 22.68 22.1899 22.75 22 22.75Z" fill="#FFFFFF" fill-opacity="1.000000" fill-rule="nonzero"/>
	<g opacity="0.000000"/>
</svg>
