<svg width="107.682129" height="19.916016" viewBox="0 0 107.682 19.916" fill="none" xmlns="http://www.w3.org/2000/svg" xmlns:xlink="http://www.w3.org/1999/xlink">
	<desc>
			Created with Pixso.
	</desc>
	<defs/>
	<path id="Vector" d="M100.803 13.195C102.063 12.8223 103.609 12.8045 104.624 12.8045L104.926 12.8045L104.926 12.9433C104.926 14.0939 104.526 15.3251 103.793 16.2175C103.182 16.9581 102.334 17.46 101.291 17.46C100.485 17.46 99.8738 17.226 99.4524 16.8694C98.9846 16.474 98.7473 15.9221 98.7473 15.3832C98.7473 14.1681 99.6638 13.5307 100.803 13.195ZM97.3772 18.6783C98.3311 19.498 99.6526 19.916 100.969 19.916C102.093 19.916 103.098 19.5739 103.926 19.0269C104.331 18.759 104.692 18.4411 105.005 18.0893L105.005 19.5965L107.682 19.5965L107.682 10.5809C107.682 8.78809 107.192 7.40033 106.259 6.44666C105.317 5.48486 103.947 4.98785 102.197 4.98785C101.261 4.98785 100.295 5.14923 99.4187 5.42841C98.5264 5.7124 97.7258 6.12231 97.145 6.61285L96.8398 6.87103L97.0449 7.21313L97.8728 8.59442L98.1375 9.03497L98.552 8.73163C99.0669 8.35724 99.6462 8.05872 100.258 7.85376C100.847 7.65692 101.468 7.55042 102.089 7.55042C102.975 7.55042 103.732 7.75696 104.227 8.27332C104.652 8.7171 104.908 9.41095 104.925 10.4276L104.597 10.4276C103.283 10.4276 101.187 10.4969 99.3977 11.136C97.5049 11.8105 95.9636 13.0982 95.9636 15.5429C95.9636 16.8936 96.522 17.9424 97.3772 18.6783ZM86.3542 19.5965L84.0693 19.5965L84.0693 0L86.8254 0L86.8254 10.4017L88.2859 10.4017L92.144 5.4881L92.2861 5.30737L95.6846 5.30737L95.0681 6.07385L90.5999 11.6362L95.5684 18.8574L96.0767 19.5965L92.7444 19.5965L92.604 19.3867L88.2908 12.9368L86.8254 12.9368L86.8254 19.5965L86.3542 19.5965ZM70.6936 8.94781C69.8496 9.80951 69.3284 11.0117 69.3284 12.3849C69.3284 13.8066 69.8464 15.0346 70.6855 15.9077C71.5408 16.7984 72.7332 17.326 74.0581 17.326C75.3845 17.326 76.5867 16.7968 77.4485 15.9044C78.2925 15.0298 78.8135 13.805 78.8135 12.3849C78.8135 11.015 78.2891 9.81274 77.4404 8.95105C76.5803 8.07648 75.3813 7.55042 74.0581 7.55042C72.738 7.55042 71.5471 8.07648 70.6936 8.94781ZM68.6943 17.7327C67.3467 16.3869 66.519 14.5167 66.519 12.3849C66.519 10.2904 67.3484 8.45245 68.6975 7.13086C70.0625 5.79309 71.957 4.98785 74.0581 4.98785C76.1606 4.98785 78.0632 5.79474 79.4348 7.13245C80.7888 8.45569 81.6245 10.2921 81.6245 12.3849C81.6245 14.515 80.7903 16.3837 79.4397 17.7295C78.0681 19.0947 76.1624 19.916 74.0581 19.916C71.9556 19.916 70.0593 19.0963 68.6943 17.7327ZM62.2024 19.0769C61.4536 18.546 60.8647 17.61 60.8647 15.9673L60.8647 0L63.6223 0L63.6223 15.5687C63.6223 16.2982 63.7693 16.6935 63.9775 16.8968C64.1597 17.0727 64.4229 17.1147 64.6697 17.1147C64.7327 17.1147 64.8101 17.1147 64.844 17.113C64.8989 17.1098 64.9602 17.105 65.0215 17.0953L65.5686 17.0049L65.5686 19.5771L65.1731 19.6417C65.0876 19.6562 64.9861 19.6707 64.8552 19.682C64.7214 19.6949 64.5776 19.703 64.4309 19.703C63.8162 19.703 62.9431 19.603 62.2024 19.0769ZM49.5125 8.43146C48.925 8.95911 48.4731 9.69171 48.2329 10.6132L55.5735 10.6132C55.4604 9.6546 55.1233 8.91876 54.6423 8.39758C54.0371 7.74078 53.1899 7.41809 52.2671 7.41809C51.2246 7.41809 50.2546 7.76501 49.5125 8.43146ZM47.334 17.7957C46.0076 16.4805 45.2087 14.6328 45.2087 12.4656C45.2087 10.221 45.9624 8.40405 47.179 7.11957C48.4846 5.74146 50.3176 4.98785 52.3203 4.98785C54.2244 4.98785 55.6929 5.68658 56.7126 6.80811C57.8293 8.03613 58.394 9.75952 58.394 11.6152C58.394 11.7621 58.386 11.9267 58.3765 12.0961C58.3667 12.2252 58.3521 12.3931 58.3376 12.5609L58.2974 12.9901L48.0715 12.9901C48.1941 14.2601 48.675 15.2702 49.3865 15.9915C50.2483 16.8661 51.457 17.326 52.7754 17.326C53.4451 17.326 54.126 17.1873 54.7666 16.9388C55.4216 16.6822 56.0317 16.3127 56.54 15.856L56.9644 15.4752L57.2581 15.9641L58.2844 17.6746L57.9988 17.9344C57.3308 18.5411 56.4819 19.0366 55.5686 19.3787C54.6472 19.7224 53.6597 19.9144 52.7205 19.9144C50.5759 19.916 48.6846 19.1349 47.334 17.7957ZM39.0122 19.5965L36.7175 19.5965L36.5999 19.2947L31.4263 5.948L31.1763 5.30737L34.1357 5.30737L34.252 5.61237L37.9585 15.4042L37.9602 15.409C37.9778 15.4558 37.9939 15.5058 38.0117 15.5558C38.0278 15.5058 38.0457 15.4558 38.0635 15.409L38.0649 15.4042L41.7717 5.61237L41.8877 5.30737L44.8184 5.30737L44.573 5.94641L39.4529 19.2931L39.335 19.5965L39.0122 19.5965ZM23.0015 13.195C21.8621 13.5307 20.947 14.1681 20.947 15.3832C20.947 15.9221 21.1843 16.474 21.6523 16.8694C22.0718 17.2244 22.6833 17.46 23.4888 17.46C24.5344 17.46 25.3816 16.9581 25.9915 16.2175C26.7258 15.3251 27.1243 14.0939 27.1243 12.9433L27.1243 12.8045L26.8225 12.8045C25.8091 12.8045 24.2632 12.8223 23.0015 13.195ZM19.5771 18.6783C18.7219 17.9424 18.1636 16.8936 18.1636 15.5429C18.1636 13.0982 19.7046 11.8105 21.5974 11.136C23.387 10.4969 25.4832 10.4276 26.7966 10.4276L27.1243 10.4276C27.1082 9.41095 26.8516 8.7171 26.4255 8.27332C25.9302 7.75696 25.175 7.55042 24.2891 7.55042C23.6663 7.55042 23.0466 7.65692 22.4575 7.85376C21.8459 8.05872 21.2651 8.35724 20.752 8.73163L20.3354 9.03497L20.0725 8.59283L19.2446 7.21313L19.0398 6.87103L19.3447 6.61285C19.9258 6.12067 20.7261 5.7124 21.6184 5.42682C22.4946 5.14923 23.4612 4.98785 24.3955 4.98785C26.1465 4.98785 27.5164 5.48328 28.4573 6.44666C29.3916 7.40033 29.8821 8.78809 29.8821 10.5809L29.8821 19.5965L27.2051 19.5965L27.2051 18.0893C26.8918 18.4411 26.5288 18.759 26.1255 19.0269C25.2959 19.5739 24.2908 19.9144 23.1692 19.9144C21.8523 19.916 20.5308 19.498 19.5771 18.6783ZM12.2334 19.5965L9.94824 19.5965L9.94824 5.30737L12.6787 5.30737L12.6787 7.24219C12.9434 6.8775 13.2434 6.54828 13.5759 6.26428C14.3699 5.58813 15.3413 5.17346 16.4482 5.17346C16.5837 5.17346 16.7307 5.18152 16.8792 5.19928C17.0178 5.21381 17.155 5.23639 17.2808 5.26868L17.6406 5.35742L17.6406 8.15552L17.021 7.95056C17.0146 7.94897 16.9534 7.9425 16.863 7.93604C16.7549 7.92798 16.6226 7.92151 16.5015 7.92151C15.3364 7.92151 14.4697 8.50568 13.8662 9.35931L13.8647 9.35931C13.0659 10.4889 12.7061 12.08 12.7061 13.4726L12.7061 19.5965L12.2334 19.5965ZM3.73071 18.809C2.63843 18.0474 1.7605 16.6854 1.7605 14.2697L1.7605 7.86829L0 7.86829L0 5.41229L1.78638 5.41229L1.78638 1.61853L4.5166 1.61853L4.5166 5.41229L7.90552 5.41229L7.90552 7.86829L4.5166 7.86829L4.5166 14.0826C4.5166 15.2057 4.79272 15.9189 5.17993 16.3691C5.73828 17.0162 6.5564 17.1405 7.08716 17.1405C7.17773 17.1405 7.26953 17.1405 7.34229 17.1356L7.34375 17.1356C7.42456 17.1308 7.50854 17.1195 7.59888 17.1002L8.17163 16.9742L8.17163 19.5771L7.77637 19.6417C7.6731 19.6594 7.53589 19.6755 7.37451 19.6868C7.2373 19.6965 7.08569 19.703 6.92578 19.703C6.08838 19.703 4.81348 19.5626 3.73071 18.809Z" fill="#909090" fill-opacity="1.000000" fill-rule="nonzero"/>
</svg>
