<svg width="267.567383" height="24.000000" viewBox="0 0 267.567 24" fill="none" xmlns="http://www.w3.org/2000/svg" xmlns:xlink="http://www.w3.org/1999/xlink">
	<desc>
			Created with Pixso.
	</desc>
	<defs/>
	<path d="M267.463 7.63303C266.371 4.80371 256.989 3.61237 228.795 2.61963C202.488 1.67654 171.862 -1.05347 118.353 0.435669C77.4521 1.5773 26.5247 6.14395 26.5247 8.67545C26.5247 10.512 28.5103 10.5616 47.4714 8.92365C64.9934 7.43451 73.9775 7.08707 84.9475 6.68997C40.969 10.5616 31.5876 13.093 8.15894 15.5252C-6.53369 17.064 2.05347 21.4818 7.41431 21.035C7.46387 21.035 75.8142 15.4756 82.2668 15.7734C82.8625 15.8231 76.3601 16.7166 67.7729 17.7589C43.7983 20.7371 48.4146 25.7008 66.3831 23.4175C126.841 15.7238 183.725 13.3411 227.554 16.6668C241.403 17.7092 242.942 17.7092 242.942 16.4186C242.942 14.1353 239.169 12.3981 233.263 12.0507C224.03 11.455 188.49 9.7673 172.408 9.27094C171.167 9.22131 171.762 8.27835 172.854 8.17908C179.406 7.53378 231.426 8.02997 251.876 8.72488C266.917 9.22125 268.009 9.17175 267.463 7.63303Z" fill="#35AFF4" fill-opacity="1.000000" fill-rule="evenodd"/>
</svg>
