<svg width="20.000000" height="18.888916" viewBox="0 0 20 18.8889" fill="none" xmlns="http://www.w3.org/2000/svg" xmlns:xlink="http://www.w3.org/1999/xlink">
	<desc>
			Created with Pixso.
	</desc>
	<defs/>
	<path d="M9.0708 0.612305C9.41455 -0.204102 10.5854 -0.204102 10.9292 0.612305L12.958 5.43115C13.103 5.77539 13.4307 6.0105 13.8066 6.04028L19.0728 6.45752C19.9648 6.52808 20.3267 7.62817 19.647 8.20337L15.6348 11.5986C15.3481 11.8413 15.2231 12.2217 15.3105 12.5842L16.5361 17.6609C16.7441 18.521 15.7969 19.2009 15.0332 18.74L10.5244 16.0195C10.2026 15.8252 9.79736 15.8252 9.47559 16.0195L4.9668 18.74C4.20312 19.2009 3.25586 18.521 3.46387 17.6609L4.68945 12.5842C4.77686 12.2217 4.65186 11.8413 4.36523 11.5986L0.353027 8.20337C-0.32666 7.62817 0.0351562 6.52808 0.927246 6.45752L6.19336 6.04028C6.56934 6.0105 6.89697 5.77539 7.04199 5.43115L9.0708 0.612305Z" fill="#B0B0B0" fill-opacity="1.000000" fill-rule="nonzero"/>
</svg>
