<svg width="20.000000" height="17.000000" viewBox="0 0 20 17" fill="none" xmlns="http://www.w3.org/2000/svg" xmlns:xlink="http://www.w3.org/1999/xlink">
	<desc>
			Created with Pixso.
	</desc>
	<defs/>
	<path id="Vector" d="M15 0L5 0C2 0 0 1.5 0 5L0 12C0 15.5 2 17 5 17L15 17C18 17 20 15.5 20 12L20 5C20 1.5 18 0 15 0ZM15.4702 6.09009L12.3398 8.59009C11.6802 9.12012 10.8398 9.37988 10 9.37988C9.16016 9.37988 8.31006 9.12012 7.66016 8.59009L4.52979 6.09009C4.20996 5.83008 4.16016 5.3501 4.41016 5.03003C4.66992 4.70996 5.14014 4.6499 5.45996 4.90991L8.58984 7.40991C9.3501 8.02002 10.6401 8.02002 11.3999 7.40991L14.5298 4.90991C14.8501 4.6499 15.3301 4.69995 15.5801 5.03003C15.8398 5.3501 15.79 5.83008 15.4702 6.09009Z" fill="#35AFF4" fill-opacity="1.000000" fill-rule="nonzero"/>
</svg>
