<svg width="236.666016" height="273.333496" viewBox="0 0 236.666 273.333" fill="none" xmlns="http://www.w3.org/2000/svg" xmlns:xlink="http://www.w3.org/1999/xlink">
	<desc>
			Created with Pixso.
	</desc>
	<defs/>
	<path d="M233.333 89.3333C219.333 27.7334 165.6 0 118.4 0C118.4 0 118.4 0 118.267 0C71.1997 0 17.333 27.6001 3.33301 89.2C-12.2671 158 29.8662 216.267 67.9995 252.933C82.1328 266.533 100.267 273.333 118.4 273.333C136.533 273.333 154.667 266.533 168.667 252.933C206.8 216.267 248.933 158.133 233.333 89.3333ZM118.4 156.133C95.1997 156.133 76.3999 137.333 76.3999 114.133C76.3999 90.9333 95.1997 72.1333 118.4 72.1333C141.6 72.1333 160.4 90.9333 160.4 114.133C160.4 137.333 141.6 156.133 118.4 156.133Z" fill="#FFFFFF" fill-opacity="0.800000" fill-rule="nonzero"/>
</svg>
