<svg width="80.000000" height="80.000000" viewBox="0 0 80 80" fill="none" xmlns="http://www.w3.org/2000/svg" xmlns:xlink="http://www.w3.org/1999/xlink">
	<desc>
			Created with Pixso.
	</desc>
	<defs/>
	<path id="Vector" d="M51.1113 23.3706C47.8225 21.173 43.9556 20 40 20L40 0C47.9111 0 55.6448 2.34596 62.2229 6.74122C68.8008 11.1365 73.9275 17.3836 76.9551 24.6926C79.9827 32.0016 80.7749 40.0444 79.2314 47.8036C77.688 55.5628 73.8784 62.6902 68.2842 68.2842C62.6902 73.8784 55.5627 77.688 47.8037 79.2314C40.0444 80.7748 32.0017 79.9826 24.6926 76.9552C17.3835 73.9276 11.1365 68.8008 6.74121 62.2228C2.34595 55.6448 0 47.9112 0 40L20 40C20 43.9556 21.1731 47.8224 23.3706 51.1114C25.5681 54.4004 28.6919 56.9638 32.3464 58.4776C36.0007 59.9914 40.0222 60.3874 43.9019 59.6156C47.7815 58.844 51.345 56.9392 54.1421 54.1422C56.9392 51.345 58.844 47.7814 59.6157 43.9018C60.3875 40.0222 59.9915 36.0008 58.4775 32.3464C56.9639 28.6918 54.4004 25.5682 51.1113 23.3706Z" fill="#35AFF4" fill-opacity="1.000000" fill-rule="evenodd"/>
</svg>
